<?xml version="1.0" encoding="UTF-8" standalone="no"?>
<!DOCTYPE svg PUBLIC "-//W3C//DTD SVG 1.1//EN"
 "http://www.w3.org/Graphics/SVG/1.1/DTD/svg11.dtd">
<!-- Generated by graphviz version 2.40.1 (20161225.0304)
 -->
<!-- Title: %3 Pages: 1 -->
<svg width="1046pt" height="616pt"
 viewBox="0.00 0.00 1046.00 616.00" xmlns="http://www.w3.org/2000/svg" xmlns:xlink="http://www.w3.org/1999/xlink">
<g id="graph0" class="graph" transform="scale(1 1) rotate(0) translate(4 612)">
<title>%3</title>
<polygon fill="#ffffff" stroke="transparent" points="-4,4 -4,-612 1042,-612 1042,4 -4,4"/>
<!-- BULKHEAD_16G -->
<g id="node1" class="node">
<title>BULKHEAD_16G</title>
<polygon fill="#ffffff" stroke="#000000" points="276,-409.5 0,-409.5 0,-18.5 276,-18.5 276,-409.5"/>
<polygon fill="none" stroke="#000000" points="0,-386 0,-409 276,-409 276,-386 0,-386"/>
<text text-anchor="start" x="80.5" y="-393.8" font-family="arial" font-size="14.00" fill="#000000">BULKHEAD_16G</text>
<polygon fill="none" stroke="#000000" points="0,-363 0,-386 175,-386 175,-363 0,-363"/>
<text text-anchor="start" x="4" y="-370.8" font-family="arial" font-size="14.00" fill="#000000">Deutsch HDP26&#45;18&#45;14SE</text>
<polygon fill="none" stroke="#000000" points="175,-363 175,-386 227,-386 227,-363 175,-363"/>
<text text-anchor="start" x="179" y="-370.8" font-family="arial" font-size="14.00" fill="#000000">female</text>
<polygon fill="none" stroke="#000000" points="227,-363 227,-386 276,-386 276,-363 227,-363"/>
<text text-anchor="start" x="231" y="-370.8" font-family="arial" font-size="14.00" fill="#000000">14&#45;pin</text>
<polygon fill="none" stroke="#000000" points="0,-340 0,-363 156,-363 156,-340 0,-340"/>
<text text-anchor="start" x="51.5" y="-347.8" font-family="arial" font-size="14.00" fill="#000000">C1PWR</text>
<polygon fill="none" stroke="#000000" points="156,-340 156,-363 276,-363 276,-340 156,-340"/>
<text text-anchor="start" x="211.5" y="-347.8" font-family="arial" font-size="14.00" fill="#000000">1</text>
<polygon fill="none" stroke="#000000" points="0,-317 0,-340 156,-340 156,-317 0,-317"/>
<text text-anchor="start" x="55.5" y="-324.8" font-family="arial" font-size="14.00" fill="#000000">C1IGN</text>
<polygon fill="none" stroke="#000000" points="156,-317 156,-340 276,-340 276,-317 156,-317"/>
<text text-anchor="start" x="211.5" y="-324.8" font-family="arial" font-size="14.00" fill="#000000">2</text>
<polygon fill="none" stroke="#000000" points="0,-294 0,-317 156,-317 156,-294 0,-294"/>
<text text-anchor="start" x="51.5" y="-301.8" font-family="arial" font-size="14.00" fill="#000000">C2PWR</text>
<polygon fill="none" stroke="#000000" points="156,-294 156,-317 276,-317 276,-294 156,-294"/>
<text text-anchor="start" x="211.5" y="-301.8" font-family="arial" font-size="14.00" fill="#000000">3</text>
<polygon fill="none" stroke="#000000" points="0,-271 0,-294 156,-294 156,-271 0,-271"/>
<text text-anchor="start" x="55.5" y="-278.8" font-family="arial" font-size="14.00" fill="#000000">C2IGN</text>
<polygon fill="none" stroke="#000000" points="156,-271 156,-294 276,-294 276,-271 156,-271"/>
<text text-anchor="start" x="211.5" y="-278.8" font-family="arial" font-size="14.00" fill="#000000">4</text>
<polygon fill="none" stroke="#000000" points="0,-248 0,-271 156,-271 156,-248 0,-248"/>
<text text-anchor="start" x="51.5" y="-255.8" font-family="arial" font-size="14.00" fill="#000000">C3PWR</text>
<polygon fill="none" stroke="#000000" points="156,-248 156,-271 276,-271 276,-248 156,-248"/>
<text text-anchor="start" x="211.5" y="-255.8" font-family="arial" font-size="14.00" fill="#000000">5</text>
<polygon fill="none" stroke="#000000" points="0,-225 0,-248 156,-248 156,-225 0,-225"/>
<text text-anchor="start" x="55.5" y="-232.8" font-family="arial" font-size="14.00" fill="#000000">C3IGN</text>
<polygon fill="none" stroke="#000000" points="156,-225 156,-248 276,-248 276,-225 156,-225"/>
<text text-anchor="start" x="211.5" y="-232.8" font-family="arial" font-size="14.00" fill="#000000">6</text>
<polygon fill="none" stroke="#000000" points="0,-202 0,-225 156,-225 156,-202 0,-202"/>
<text text-anchor="start" x="51.5" y="-209.8" font-family="arial" font-size="14.00" fill="#000000">C4PWR</text>
<polygon fill="none" stroke="#000000" points="156,-202 156,-225 276,-225 276,-202 156,-202"/>
<text text-anchor="start" x="211.5" y="-209.8" font-family="arial" font-size="14.00" fill="#000000">7</text>
<polygon fill="none" stroke="#000000" points="0,-179 0,-202 156,-202 156,-179 0,-179"/>
<text text-anchor="start" x="55.5" y="-186.8" font-family="arial" font-size="14.00" fill="#000000">C3IGN</text>
<polygon fill="none" stroke="#000000" points="156,-179 156,-202 276,-202 276,-179 156,-179"/>
<text text-anchor="start" x="211.5" y="-186.8" font-family="arial" font-size="14.00" fill="#000000">8</text>
<polygon fill="none" stroke="#000000" points="0,-156 0,-179 156,-179 156,-156 0,-156"/>
<text text-anchor="start" x="52.5" y="-163.8" font-family="arial" font-size="14.00" fill="#000000">EMPTY</text>
<polygon fill="none" stroke="#000000" points="156,-156 156,-179 276,-179 276,-156 156,-156"/>
<text text-anchor="start" x="211.5" y="-163.8" font-family="arial" font-size="14.00" fill="#000000">9</text>
<polygon fill="none" stroke="#000000" points="0,-133 0,-156 156,-156 156,-133 0,-133"/>
<text text-anchor="start" x="52.5" y="-140.8" font-family="arial" font-size="14.00" fill="#000000">EMPTY</text>
<polygon fill="none" stroke="#000000" points="156,-133 156,-156 276,-156 276,-133 156,-133"/>
<text text-anchor="start" x="207.5" y="-140.8" font-family="arial" font-size="14.00" fill="#000000">10</text>
<polygon fill="none" stroke="#000000" points="0,-110 0,-133 156,-133 156,-110 0,-110"/>
<text text-anchor="start" x="52.5" y="-117.8" font-family="arial" font-size="14.00" fill="#000000">EMPTY</text>
<polygon fill="none" stroke="#000000" points="156,-110 156,-133 276,-133 276,-110 156,-110"/>
<text text-anchor="start" x="207.5" y="-117.8" font-family="arial" font-size="14.00" fill="#000000">11</text>
<polygon fill="none" stroke="#000000" points="0,-87 0,-110 156,-110 156,-87 0,-87"/>
<text text-anchor="start" x="52.5" y="-94.8" font-family="arial" font-size="14.00" fill="#000000">EMPTY</text>
<polygon fill="none" stroke="#000000" points="156,-87 156,-110 276,-110 276,-87 156,-87"/>
<text text-anchor="start" x="207.5" y="-94.8" font-family="arial" font-size="14.00" fill="#000000">12</text>
<polygon fill="none" stroke="#000000" points="0,-64 0,-87 156,-87 156,-64 0,-64"/>
<text text-anchor="start" x="52.5" y="-71.8" font-family="arial" font-size="14.00" fill="#000000">EMPTY</text>
<polygon fill="none" stroke="#000000" points="156,-64 156,-87 276,-87 276,-64 156,-64"/>
<text text-anchor="start" x="207.5" y="-71.8" font-family="arial" font-size="14.00" fill="#000000">13</text>
<polygon fill="none" stroke="#000000" points="0,-41 0,-64 156,-64 156,-41 0,-41"/>
<text text-anchor="start" x="52.5" y="-48.8" font-family="arial" font-size="14.00" fill="#000000">EMPTY</text>
<polygon fill="none" stroke="#000000" points="156,-41 156,-64 276,-64 276,-41 156,-41"/>
<text text-anchor="start" x="207.5" y="-48.8" font-family="arial" font-size="14.00" fill="#000000">14</text>
<polygon fill="none" stroke="#000000" points="0,-18 0,-41 276,-41 276,-18 0,-18"/>
<text text-anchor="start" x="121.5" y="-25.8" font-family="arial" font-size="14.00" fill="#000000">Coils</text>
</g>
<!-- 2PC1 -->
<g id="node6" class="node">
<title>2PC1</title>
<polygon fill="#ffffff" stroke="#000000" points="775,-608 420,-608 420,-474 775,-474 775,-608"/>
<polygon fill="none" stroke="#000000" points="420.5,-585 420.5,-608 775.5,-608 775.5,-585 420.5,-585"/>
<text text-anchor="start" x="579.5" y="-592.8" font-family="arial" font-size="14.00" fill="#000000">2PC1</text>
<polygon fill="none" stroke="#000000" points="420.5,-562 420.5,-585 579.5,-585 579.5,-562 420.5,-562"/>
<text text-anchor="start" x="492" y="-569.8" font-family="arial" font-size="14.00" fill="#000000">2x</text>
<polygon fill="none" stroke="#000000" points="579.5,-562 579.5,-585 775.5,-585 775.5,-562 579.5,-562"/>
<text text-anchor="start" x="650.5" y="-569.8" font-family="arial" font-size="14.00" fill="#000000">16 AWG</text>
<text text-anchor="start" x="512.5" y="-548.8" font-family="arial" font-size="14.00" fill="#000000"> </text>
<text text-anchor="start" x="422.5" y="-529.8" font-family="arial" font-size="14.00" fill="#000000">BULKHEAD_16G:1:C1PWR</text>
<text text-anchor="start" x="610.5" y="-529.8" font-family="arial" font-size="14.00" fill="#000000"> &#160;&#160;&#160;&#160;1:RD &#160;&#160;&#160;</text>
<text text-anchor="start" x="681.5" y="-529.8" font-family="arial" font-size="14.00" fill="#000000">COIL1:1:PWR</text>
<polygon fill="#000000" stroke="transparent" points="420.5,-522 420.5,-524 775.5,-524 775.5,-522 420.5,-522"/>
<polygon fill="#ff0000" stroke="transparent" points="420.5,-520 420.5,-522 775.5,-522 775.5,-520 420.5,-520"/>
<polygon fill="#000000" stroke="transparent" points="420.5,-518 420.5,-520 775.5,-520 775.5,-518 420.5,-518"/>
<text text-anchor="start" x="427" y="-504.8" font-family="arial" font-size="14.00" fill="#000000">BULKHEAD_16G:2:C1IGN</text>
<text text-anchor="start" x="611.5" y="-504.8" font-family="arial" font-size="14.00" fill="#000000"> &#160;&#160;&#160;&#160;2:VT &#160;&#160;&#160;</text>
<text text-anchor="start" x="685.5" y="-504.8" font-family="arial" font-size="14.00" fill="#000000">COIL1:2:IGN</text>
<polygon fill="#000000" stroke="transparent" points="420.5,-497 420.5,-499 775.5,-499 775.5,-497 420.5,-497"/>
<polygon fill="#8000ff" stroke="transparent" points="420.5,-495 420.5,-497 775.5,-497 775.5,-495 420.5,-495"/>
<polygon fill="#000000" stroke="transparent" points="420.5,-493 420.5,-495 775.5,-495 775.5,-493 420.5,-493"/>
<text text-anchor="start" x="512.5" y="-479.8" font-family="arial" font-size="14.00" fill="#000000"> </text>
</g>
<!-- BULKHEAD_16G&#45;&#45;2PC1 -->
<g id="edge1" class="edge">
<title>BULKHEAD_16G:e&#45;&#45;2PC1:w</title>
<path fill="none" stroke="#000000" stroke-width="2" d="M276,-350C376.7318,-352.6 323.5839,-521.6 420.5,-519"/>
<path fill="none" stroke="#ff0000" stroke-width="2" d="M276,-352C374.8239,-352 321.6761,-521 420.5,-521"/>
<path fill="none" stroke="#000000" stroke-width="2" d="M276,-354C372.9161,-351.4 319.7682,-520.4 420.5,-523"/>
</g>
<!-- BULKHEAD_16G&#45;&#45;2PC1 -->
<g id="edge3" class="edge">
<title>BULKHEAD_16G:e&#45;&#45;2PC1:w</title>
<path fill="none" stroke="#000000" stroke-width="2" d="M276,-327C376.0603,-329.5925 324.2602,-496.5925 420.5,-494"/>
<path fill="none" stroke="#8000ff" stroke-width="2" d="M276,-329C374.15,-329 322.35,-496 420.5,-496"/>
<path fill="none" stroke="#000000" stroke-width="2" d="M276,-331C372.2398,-328.4075 320.4397,-495.4075 420.5,-498"/>
</g>
<!-- 2PC2 -->
<g id="node7" class="node">
<title>2PC2</title>
<polygon fill="#ffffff" stroke="#000000" points="775,-450 420,-450 420,-316 775,-316 775,-450"/>
<polygon fill="none" stroke="#000000" points="420.5,-427 420.5,-450 775.5,-450 775.5,-427 420.5,-427"/>
<text text-anchor="start" x="579.5" y="-434.8" font-family="arial" font-size="14.00" fill="#000000">2PC2</text>
<polygon fill="none" stroke="#000000" points="420.5,-404 420.5,-427 579.5,-427 579.5,-404 420.5,-404"/>
<text text-anchor="start" x="492" y="-411.8" font-family="arial" font-size="14.00" fill="#000000">2x</text>
<polygon fill="none" stroke="#000000" points="579.5,-404 579.5,-427 775.5,-427 775.5,-404 579.5,-404"/>
<text text-anchor="start" x="650.5" y="-411.8" font-family="arial" font-size="14.00" fill="#000000">16 AWG</text>
<text text-anchor="start" x="512.5" y="-390.8" font-family="arial" font-size="14.00" fill="#000000"> </text>
<text text-anchor="start" x="422.5" y="-371.8" font-family="arial" font-size="14.00" fill="#000000">BULKHEAD_16G:3:C2PWR</text>
<text text-anchor="start" x="610.5" y="-371.8" font-family="arial" font-size="14.00" fill="#000000"> &#160;&#160;&#160;&#160;1:RD &#160;&#160;&#160;</text>
<text text-anchor="start" x="681.5" y="-371.8" font-family="arial" font-size="14.00" fill="#000000">COIL2:1:PWR</text>
<polygon fill="#000000" stroke="transparent" points="420.5,-364 420.5,-366 775.5,-366 775.5,-364 420.5,-364"/>
<polygon fill="#ff0000" stroke="transparent" points="420.5,-362 420.5,-364 775.5,-364 775.5,-362 420.5,-362"/>
<polygon fill="#000000" stroke="transparent" points="420.5,-360 420.5,-362 775.5,-362 775.5,-360 420.5,-360"/>
<text text-anchor="start" x="427" y="-346.8" font-family="arial" font-size="14.00" fill="#000000">BULKHEAD_16G:4:C2IGN</text>
<text text-anchor="start" x="611.5" y="-346.8" font-family="arial" font-size="14.00" fill="#000000"> &#160;&#160;&#160;&#160;2:VT &#160;&#160;&#160;</text>
<text text-anchor="start" x="685.5" y="-346.8" font-family="arial" font-size="14.00" fill="#000000">COIL2:2:IGN</text>
<polygon fill="#000000" stroke="transparent" points="420.5,-339 420.5,-341 775.5,-341 775.5,-339 420.5,-339"/>
<polygon fill="#8000ff" stroke="transparent" points="420.5,-337 420.5,-339 775.5,-339 775.5,-337 420.5,-337"/>
<polygon fill="#000000" stroke="transparent" points="420.5,-335 420.5,-337 775.5,-337 775.5,-335 420.5,-335"/>
<text text-anchor="start" x="512.5" y="-321.8" font-family="arial" font-size="14.00" fill="#000000"> </text>
</g>
<!-- BULKHEAD_16G&#45;&#45;2PC2 -->
<g id="edge5" class="edge">
<title>BULKHEAD_16G:e&#45;&#45;2PC2:w</title>
<path fill="none" stroke="#000000" stroke-width="2" d="M276,-304C347.0256,-305.776 353.4492,-362.776 420.5,-361"/>
<path fill="none" stroke="#ff0000" stroke-width="2" d="M276,-306C345.0382,-306 351.4618,-363 420.5,-363"/>
<path fill="none" stroke="#000000" stroke-width="2" d="M276,-308C343.0508,-306.224 349.4744,-363.224 420.5,-365"/>
</g>
<!-- BULKHEAD_16G&#45;&#45;2PC2 -->
<g id="edge7" class="edge">
<title>BULKHEAD_16G:e&#45;&#45;2PC2:w</title>
<path fill="none" stroke="#000000" stroke-width="2" d="M276,-281C346.7007,-282.7451 353.7667,-337.7451 420.5,-336"/>
<path fill="none" stroke="#8000ff" stroke-width="2" d="M276,-283C344.717,-283 351.783,-338 420.5,-338"/>
<path fill="none" stroke="#000000" stroke-width="2" d="M276,-285C342.7333,-283.2549 349.7993,-338.2549 420.5,-340"/>
</g>
<!-- 2PC3 -->
<g id="node8" class="node">
<title>2PC3</title>
<polygon fill="#ffffff" stroke="#000000" points="775,-292 420,-292 420,-158 775,-158 775,-292"/>
<polygon fill="none" stroke="#000000" points="420.5,-269 420.5,-292 775.5,-292 775.5,-269 420.5,-269"/>
<text text-anchor="start" x="579.5" y="-276.8" font-family="arial" font-size="14.00" fill="#000000">2PC3</text>
<polygon fill="none" stroke="#000000" points="420.5,-246 420.5,-269 579.5,-269 579.5,-246 420.5,-246"/>
<text text-anchor="start" x="492" y="-253.8" font-family="arial" font-size="14.00" fill="#000000">2x</text>
<polygon fill="none" stroke="#000000" points="579.5,-246 579.5,-269 775.5,-269 775.5,-246 579.5,-246"/>
<text text-anchor="start" x="650.5" y="-253.8" font-family="arial" font-size="14.00" fill="#000000">16 AWG</text>
<text text-anchor="start" x="512.5" y="-232.8" font-family="arial" font-size="14.00" fill="#000000"> </text>
<text text-anchor="start" x="422.5" y="-213.8" font-family="arial" font-size="14.00" fill="#000000">BULKHEAD_16G:5:C3PWR</text>
<text text-anchor="start" x="610.5" y="-213.8" font-family="arial" font-size="14.00" fill="#000000"> &#160;&#160;&#160;&#160;1:RD &#160;&#160;&#160;</text>
<text text-anchor="start" x="681.5" y="-213.8" font-family="arial" font-size="14.00" fill="#000000">COIL3:1:PWR</text>
<polygon fill="#000000" stroke="transparent" points="420.5,-206 420.5,-208 775.5,-208 775.5,-206 420.5,-206"/>
<polygon fill="#ff0000" stroke="transparent" points="420.5,-204 420.5,-206 775.5,-206 775.5,-204 420.5,-204"/>
<polygon fill="#000000" stroke="transparent" points="420.5,-202 420.5,-204 775.5,-204 775.5,-202 420.5,-202"/>
<text text-anchor="start" x="427" y="-188.8" font-family="arial" font-size="14.00" fill="#000000">BULKHEAD_16G:6:C3IGN</text>
<text text-anchor="start" x="611.5" y="-188.8" font-family="arial" font-size="14.00" fill="#000000"> &#160;&#160;&#160;&#160;2:VT &#160;&#160;&#160;</text>
<text text-anchor="start" x="685.5" y="-188.8" font-family="arial" font-size="14.00" fill="#000000">COIL3:2:IGN</text>
<polygon fill="#000000" stroke="transparent" points="420.5,-181 420.5,-183 775.5,-183 775.5,-181 420.5,-181"/>
<polygon fill="#8000ff" stroke="transparent" points="420.5,-179 420.5,-181 775.5,-181 775.5,-179 420.5,-179"/>
<polygon fill="#000000" stroke="transparent" points="420.5,-177 420.5,-179 775.5,-179 775.5,-177 420.5,-177"/>
<text text-anchor="start" x="512.5" y="-163.8" font-family="arial" font-size="14.00" fill="#000000"> </text>
</g>
<!-- BULKHEAD_16G&#45;&#45;2PC3 -->
<g id="edge9" class="edge">
<title>BULKHEAD_16G:e&#45;&#45;2PC3:w</title>
<path fill="none" stroke="#000000" stroke-width="2" d="M276,-258C342.7333,-259.7451 349.7993,-204.7451 420.5,-203"/>
<path fill="none" stroke="#ff0000" stroke-width="2" d="M276,-260C344.717,-260 351.783,-205 420.5,-205"/>
<path fill="none" stroke="#000000" stroke-width="2" d="M276,-262C346.7007,-260.2549 353.7667,-205.2549 420.5,-207"/>
</g>
<!-- BULKHEAD_16G&#45;&#45;2PC3 -->
<g id="edge11" class="edge">
<title>BULKHEAD_16G:e&#45;&#45;2PC3:w</title>
<path fill="none" stroke="#000000" stroke-width="2" d="M276,-235C343.0508,-236.776 349.4744,-179.776 420.5,-178"/>
<path fill="none" stroke="#8000ff" stroke-width="2" d="M276,-237C345.0382,-237 351.4618,-180 420.5,-180"/>
<path fill="none" stroke="#000000" stroke-width="2" d="M276,-239C347.0256,-237.224 353.4492,-180.224 420.5,-182"/>
</g>
<!-- 2PC4 -->
<g id="node9" class="node">
<title>2PC4</title>
<polygon fill="#ffffff" stroke="#000000" points="775,-134 420,-134 420,0 775,0 775,-134"/>
<polygon fill="none" stroke="#000000" points="420.5,-111 420.5,-134 775.5,-134 775.5,-111 420.5,-111"/>
<text text-anchor="start" x="579.5" y="-118.8" font-family="arial" font-size="14.00" fill="#000000">2PC4</text>
<polygon fill="none" stroke="#000000" points="420.5,-88 420.5,-111 579.5,-111 579.5,-88 420.5,-88"/>
<text text-anchor="start" x="492" y="-95.8" font-family="arial" font-size="14.00" fill="#000000">2x</text>
<polygon fill="none" stroke="#000000" points="579.5,-88 579.5,-111 775.5,-111 775.5,-88 579.5,-88"/>
<text text-anchor="start" x="650.5" y="-95.8" font-family="arial" font-size="14.00" fill="#000000">16 AWG</text>
<text text-anchor="start" x="512.5" y="-74.8" font-family="arial" font-size="14.00" fill="#000000"> </text>
<text text-anchor="start" x="422.5" y="-55.8" font-family="arial" font-size="14.00" fill="#000000">BULKHEAD_16G:7:C4PWR</text>
<text text-anchor="start" x="610.5" y="-55.8" font-family="arial" font-size="14.00" fill="#000000"> &#160;&#160;&#160;&#160;1:RD &#160;&#160;&#160;</text>
<text text-anchor="start" x="681.5" y="-55.8" font-family="arial" font-size="14.00" fill="#000000">COIL4:1:PWR</text>
<polygon fill="#000000" stroke="transparent" points="420.5,-48 420.5,-50 775.5,-50 775.5,-48 420.5,-48"/>
<polygon fill="#ff0000" stroke="transparent" points="420.5,-46 420.5,-48 775.5,-48 775.5,-46 420.5,-46"/>
<polygon fill="#000000" stroke="transparent" points="420.5,-44 420.5,-46 775.5,-46 775.5,-44 420.5,-44"/>
<text text-anchor="start" x="427" y="-30.8" font-family="arial" font-size="14.00" fill="#000000">BULKHEAD_16G:8:C3IGN</text>
<text text-anchor="start" x="611.5" y="-30.8" font-family="arial" font-size="14.00" fill="#000000"> &#160;&#160;&#160;&#160;2:VT &#160;&#160;&#160;</text>
<text text-anchor="start" x="685.5" y="-30.8" font-family="arial" font-size="14.00" fill="#000000">COIL4:2:IGN</text>
<polygon fill="#000000" stroke="transparent" points="420.5,-23 420.5,-25 775.5,-25 775.5,-23 420.5,-23"/>
<polygon fill="#8000ff" stroke="transparent" points="420.5,-21 420.5,-23 775.5,-23 775.5,-21 420.5,-21"/>
<polygon fill="#000000" stroke="transparent" points="420.5,-19 420.5,-21 775.5,-21 775.5,-19 420.5,-19"/>
<text text-anchor="start" x="512.5" y="-5.8" font-family="arial" font-size="14.00" fill="#000000"> </text>
</g>
<!-- BULKHEAD_16G&#45;&#45;2PC4 -->
<g id="edge13" class="edge">
<title>BULKHEAD_16G:e&#45;&#45;2PC4:w</title>
<path fill="none" stroke="#000000" stroke-width="2" d="M276,-211C371.903,-213.5887 320.7742,-47.5887 420.5,-45"/>
<path fill="none" stroke="#ff0000" stroke-width="2" d="M276,-213C373.8144,-213 322.6856,-47 420.5,-47"/>
<path fill="none" stroke="#000000" stroke-width="2" d="M276,-215C375.7258,-212.4113 324.597,-46.4113 420.5,-49"/>
</g>
<!-- BULKHEAD_16G&#45;&#45;2PC4 -->
<g id="edge15" class="edge">
<title>BULKHEAD_16G:e&#45;&#45;2PC4:w</title>
<path fill="none" stroke="#000000" stroke-width="2" d="M276,-188C372.5775,-190.5963 320.1044,-22.5963 420.5,-20"/>
<path fill="none" stroke="#8000ff" stroke-width="2" d="M276,-190C374.4866,-190 322.0134,-22 420.5,-22"/>
<path fill="none" stroke="#000000" stroke-width="2" d="M276,-192C376.3956,-189.4037 323.9225,-21.4037 420.5,-24"/>
</g>
<!-- COIL1 -->
<g id="node2" class="node">
<title>COIL1</title>
<polygon fill="#ffffff" stroke="#000000" points="1038,-578 919,-578 919,-486 1038,-486 1038,-578"/>
<polygon fill="none" stroke="#000000" points="919.5,-555 919.5,-578 1038.5,-578 1038.5,-555 919.5,-555"/>
<text text-anchor="start" x="957.5" y="-562.8" font-family="arial" font-size="14.00" fill="#000000">COIL1</text>
<polygon fill="none" stroke="#000000" points="919.5,-532 919.5,-555 997.5,-555 997.5,-532 919.5,-532"/>
<text text-anchor="start" x="923.5" y="-539.8" font-family="arial" font-size="14.00" fill="#000000">Denso_2P</text>
<polygon fill="none" stroke="#000000" points="997.5,-532 997.5,-555 1038.5,-555 1038.5,-532 997.5,-532"/>
<text text-anchor="start" x="1001.5" y="-539.8" font-family="arial" font-size="14.00" fill="#000000">2&#45;pin</text>
<polygon fill="none" stroke="#000000" points="919.5,-509 919.5,-532 966.5,-532 966.5,-509 919.5,-509"/>
<text text-anchor="start" x="938.5" y="-516.8" font-family="arial" font-size="14.00" fill="#000000">1</text>
<polygon fill="none" stroke="#000000" points="966.5,-509 966.5,-532 1038.5,-532 1038.5,-509 966.5,-509"/>
<text text-anchor="start" x="985.5" y="-516.8" font-family="arial" font-size="14.00" fill="#000000">PWR</text>
<polygon fill="none" stroke="#000000" points="919.5,-486 919.5,-509 966.5,-509 966.5,-486 919.5,-486"/>
<text text-anchor="start" x="938.5" y="-493.8" font-family="arial" font-size="14.00" fill="#000000">2</text>
<polygon fill="none" stroke="#000000" points="966.5,-486 966.5,-509 1038.5,-509 1038.5,-486 966.5,-486"/>
<text text-anchor="start" x="989.5" y="-493.8" font-family="arial" font-size="14.00" fill="#000000">IGN</text>
</g>
<!-- COIL2 -->
<g id="node3" class="node">
<title>COIL2</title>
<polygon fill="#ffffff" stroke="#000000" points="1038,-420 919,-420 919,-328 1038,-328 1038,-420"/>
<polygon fill="none" stroke="#000000" points="919.5,-397 919.5,-420 1038.5,-420 1038.5,-397 919.5,-397"/>
<text text-anchor="start" x="957.5" y="-404.8" font-family="arial" font-size="14.00" fill="#000000">COIL2</text>
<polygon fill="none" stroke="#000000" points="919.5,-374 919.5,-397 997.5,-397 997.5,-374 919.5,-374"/>
<text text-anchor="start" x="923.5" y="-381.8" font-family="arial" font-size="14.00" fill="#000000">Denso_2P</text>
<polygon fill="none" stroke="#000000" points="997.5,-374 997.5,-397 1038.5,-397 1038.5,-374 997.5,-374"/>
<text text-anchor="start" x="1001.5" y="-381.8" font-family="arial" font-size="14.00" fill="#000000">2&#45;pin</text>
<polygon fill="none" stroke="#000000" points="919.5,-351 919.5,-374 966.5,-374 966.5,-351 919.5,-351"/>
<text text-anchor="start" x="938.5" y="-358.8" font-family="arial" font-size="14.00" fill="#000000">1</text>
<polygon fill="none" stroke="#000000" points="966.5,-351 966.5,-374 1038.5,-374 1038.5,-351 966.5,-351"/>
<text text-anchor="start" x="985.5" y="-358.8" font-family="arial" font-size="14.00" fill="#000000">PWR</text>
<polygon fill="none" stroke="#000000" points="919.5,-328 919.5,-351 966.5,-351 966.5,-328 919.5,-328"/>
<text text-anchor="start" x="938.5" y="-335.8" font-family="arial" font-size="14.00" fill="#000000">2</text>
<polygon fill="none" stroke="#000000" points="966.5,-328 966.5,-351 1038.5,-351 1038.5,-328 966.5,-328"/>
<text text-anchor="start" x="989.5" y="-335.8" font-family="arial" font-size="14.00" fill="#000000">IGN</text>
</g>
<!-- COIL3 -->
<g id="node4" class="node">
<title>COIL3</title>
<polygon fill="#ffffff" stroke="#000000" points="1038,-262 919,-262 919,-170 1038,-170 1038,-262"/>
<polygon fill="none" stroke="#000000" points="919.5,-239 919.5,-262 1038.5,-262 1038.5,-239 919.5,-239"/>
<text text-anchor="start" x="957.5" y="-246.8" font-family="arial" font-size="14.00" fill="#000000">COIL3</text>
<polygon fill="none" stroke="#000000" points="919.5,-216 919.5,-239 997.5,-239 997.5,-216 919.5,-216"/>
<text text-anchor="start" x="923.5" y="-223.8" font-family="arial" font-size="14.00" fill="#000000">Denso_2P</text>
<polygon fill="none" stroke="#000000" points="997.5,-216 997.5,-239 1038.5,-239 1038.5,-216 997.5,-216"/>
<text text-anchor="start" x="1001.5" y="-223.8" font-family="arial" font-size="14.00" fill="#000000">2&#45;pin</text>
<polygon fill="none" stroke="#000000" points="919.5,-193 919.5,-216 966.5,-216 966.5,-193 919.5,-193"/>
<text text-anchor="start" x="938.5" y="-200.8" font-family="arial" font-size="14.00" fill="#000000">1</text>
<polygon fill="none" stroke="#000000" points="966.5,-193 966.5,-216 1038.5,-216 1038.5,-193 966.5,-193"/>
<text text-anchor="start" x="985.5" y="-200.8" font-family="arial" font-size="14.00" fill="#000000">PWR</text>
<polygon fill="none" stroke="#000000" points="919.5,-170 919.5,-193 966.5,-193 966.5,-170 919.5,-170"/>
<text text-anchor="start" x="938.5" y="-177.8" font-family="arial" font-size="14.00" fill="#000000">2</text>
<polygon fill="none" stroke="#000000" points="966.5,-170 966.5,-193 1038.5,-193 1038.5,-170 966.5,-170"/>
<text text-anchor="start" x="989.5" y="-177.8" font-family="arial" font-size="14.00" fill="#000000">IGN</text>
</g>
<!-- COIL4 -->
<g id="node5" class="node">
<title>COIL4</title>
<polygon fill="#ffffff" stroke="#000000" points="1038,-104 919,-104 919,-12 1038,-12 1038,-104"/>
<polygon fill="none" stroke="#000000" points="919.5,-81 919.5,-104 1038.5,-104 1038.5,-81 919.5,-81"/>
<text text-anchor="start" x="957.5" y="-88.8" font-family="arial" font-size="14.00" fill="#000000">COIL4</text>
<polygon fill="none" stroke="#000000" points="919.5,-58 919.5,-81 997.5,-81 997.5,-58 919.5,-58"/>
<text text-anchor="start" x="923.5" y="-65.8" font-family="arial" font-size="14.00" fill="#000000">Denso_2P</text>
<polygon fill="none" stroke="#000000" points="997.5,-58 997.5,-81 1038.5,-81 1038.5,-58 997.5,-58"/>
<text text-anchor="start" x="1001.5" y="-65.8" font-family="arial" font-size="14.00" fill="#000000">2&#45;pin</text>
<polygon fill="none" stroke="#000000" points="919.5,-35 919.5,-58 966.5,-58 966.5,-35 919.5,-35"/>
<text text-anchor="start" x="938.5" y="-42.8" font-family="arial" font-size="14.00" fill="#000000">1</text>
<polygon fill="none" stroke="#000000" points="966.5,-35 966.5,-58 1038.5,-58 1038.5,-35 966.5,-35"/>
<text text-anchor="start" x="985.5" y="-42.8" font-family="arial" font-size="14.00" fill="#000000">PWR</text>
<polygon fill="none" stroke="#000000" points="919.5,-12 919.5,-35 966.5,-35 966.5,-12 919.5,-12"/>
<text text-anchor="start" x="938.5" y="-19.8" font-family="arial" font-size="14.00" fill="#000000">2</text>
<polygon fill="none" stroke="#000000" points="966.5,-12 966.5,-35 1038.5,-35 1038.5,-12 966.5,-12"/>
<text text-anchor="start" x="989.5" y="-19.8" font-family="arial" font-size="14.00" fill="#000000">IGN</text>
</g>
<!-- 2PC1&#45;&#45;COIL1 -->
<g id="edge2" class="edge">
<title>2PC1:e&#45;&#45;COIL1:w</title>
<path fill="none" stroke="#000000" stroke-width="2" d="M775,-519C839.0994,-519.0039 855.1519,-518.0039 919.5,-518"/>
<path fill="none" stroke="#ff0000" stroke-width="2" d="M775,-521C839.2238,-521 855.2762,-520 919.5,-520"/>
<path fill="none" stroke="#000000" stroke-width="2" d="M775,-523C839.3481,-522.9961 855.4006,-521.9961 919.5,-522"/>
</g>
<!-- 2PC1&#45;&#45;COIL1 -->
<g id="edge4" class="edge">
<title>2PC1:e&#45;&#45;COIL1:w</title>
<path fill="none" stroke="#000000" stroke-width="2" d="M775,-494C839.3481,-494.0039 855.4006,-495.0039 919.5,-495"/>
<path fill="none" stroke="#8000ff" stroke-width="2" d="M775,-496C839.2238,-496 855.2762,-497 919.5,-497"/>
<path fill="none" stroke="#000000" stroke-width="2" d="M775,-498C839.0994,-497.9961 855.1519,-498.9961 919.5,-499"/>
</g>
<!-- 2PC2&#45;&#45;COIL2 -->
<g id="edge6" class="edge">
<title>2PC2:e&#45;&#45;COIL2:w</title>
<path fill="none" stroke="#000000" stroke-width="2" d="M775,-361C839.0994,-361.0039 855.1519,-360.0039 919.5,-360"/>
<path fill="none" stroke="#ff0000" stroke-width="2" d="M775,-363C839.2238,-363 855.2762,-362 919.5,-362"/>
<path fill="none" stroke="#000000" stroke-width="2" d="M775,-365C839.3481,-364.9961 855.4006,-363.9961 919.5,-364"/>
</g>
<!-- 2PC2&#45;&#45;COIL2 -->
<g id="edge8" class="edge">
<title>2PC2:e&#45;&#45;COIL2:w</title>
<path fill="none" stroke="#000000" stroke-width="2" d="M775,-336C839.3481,-336.0039 855.4006,-337.0039 919.5,-337"/>
<path fill="none" stroke="#8000ff" stroke-width="2" d="M775,-338C839.2238,-338 855.2762,-339 919.5,-339"/>
<path fill="none" stroke="#000000" stroke-width="2" d="M775,-340C839.0994,-339.9961 855.1519,-340.9961 919.5,-341"/>
</g>
<!-- 2PC3&#45;&#45;COIL3 -->
<g id="edge10" class="edge">
<title>2PC3:e&#45;&#45;COIL3:w</title>
<path fill="none" stroke="#000000" stroke-width="2" d="M775,-203C839.0994,-203.0039 855.1519,-202.0039 919.5,-202"/>
<path fill="none" stroke="#ff0000" stroke-width="2" d="M775,-205C839.2238,-205 855.2762,-204 919.5,-204"/>
<path fill="none" stroke="#000000" stroke-width="2" d="M775,-207C839.3481,-206.9961 855.4006,-205.9961 919.5,-206"/>
</g>
<!-- 2PC3&#45;&#45;COIL3 -->
<g id="edge12" class="edge">
<title>2PC3:e&#45;&#45;COIL3:w</title>
<path fill="none" stroke="#000000" stroke-width="2" d="M775,-178C839.3481,-178.0039 855.4006,-179.0039 919.5,-179"/>
<path fill="none" stroke="#8000ff" stroke-width="2" d="M775,-180C839.2238,-180 855.2762,-181 919.5,-181"/>
<path fill="none" stroke="#000000" stroke-width="2" d="M775,-182C839.0994,-181.9961 855.1519,-182.9961 919.5,-183"/>
</g>
<!-- 2PC4&#45;&#45;COIL4 -->
<g id="edge14" class="edge">
<title>2PC4:e&#45;&#45;COIL4:w</title>
<path fill="none" stroke="#000000" stroke-width="2" d="M775,-45C839.0994,-45.0039 855.1519,-44.0039 919.5,-44"/>
<path fill="none" stroke="#ff0000" stroke-width="2" d="M775,-47C839.2238,-47 855.2762,-46 919.5,-46"/>
<path fill="none" stroke="#000000" stroke-width="2" d="M775,-49C839.3481,-48.9961 855.4006,-47.9961 919.5,-48"/>
</g>
<!-- 2PC4&#45;&#45;COIL4 -->
<g id="edge16" class="edge">
<title>2PC4:e&#45;&#45;COIL4:w</title>
<path fill="none" stroke="#000000" stroke-width="2" d="M775,-20C839.3481,-20.0039 855.4006,-21.0039 919.5,-21"/>
<path fill="none" stroke="#8000ff" stroke-width="2" d="M775,-22C839.2238,-22 855.2762,-23 919.5,-23"/>
<path fill="none" stroke="#000000" stroke-width="2" d="M775,-24C839.0994,-23.9961 855.1519,-24.9961 919.5,-25"/>
</g>
</g>
</svg>
