<?xml version="1.0" encoding="UTF-8" standalone="no"?>
<!DOCTYPE svg PUBLIC "-//W3C//DTD SVG 1.1//EN"
 "http://www.w3.org/Graphics/SVG/1.1/DTD/svg11.dtd">
<!-- Generated by graphviz version 2.40.1 (20161225.0304)
 -->
<!-- Title: %3 Pages: 1 -->
<svg width="1019pt" height="616pt"
 viewBox="0.00 0.00 1019.00 616.00" xmlns="http://www.w3.org/2000/svg" xmlns:xlink="http://www.w3.org/1999/xlink">
<g id="graph0" class="graph" transform="scale(1 1) rotate(0) translate(4 612)">
<title>%3</title>
<polygon fill="#ffffff" stroke="transparent" points="-4,4 -4,-612 1015,-612 1015,4 -4,4"/>
<!-- BULKHEAD_16G -->
<g id="node1" class="node">
<title>BULKHEAD_16G</title>
<polygon fill="#ffffff" stroke="#000000" points="268,-410.5 0,-410.5 0,-157.5 268,-157.5 268,-410.5"/>
<polygon fill="none" stroke="#000000" points="0,-387 0,-410 268,-410 268,-387 0,-387"/>
<text text-anchor="start" x="76.5" y="-394.8" font-family="arial" font-size="14.00" fill="#000000">BULKHEAD_16G</text>
<polygon fill="none" stroke="#000000" points="0,-364 0,-387 175,-387 175,-364 0,-364"/>
<text text-anchor="start" x="4" y="-371.8" font-family="arial" font-size="14.00" fill="#000000">Deutsch HDP26&#45;18&#45;14SE</text>
<polygon fill="none" stroke="#000000" points="175,-364 175,-387 227,-387 227,-364 175,-364"/>
<text text-anchor="start" x="179" y="-371.8" font-family="arial" font-size="14.00" fill="#000000">female</text>
<polygon fill="none" stroke="#000000" points="227,-364 227,-387 268,-387 268,-364 227,-364"/>
<text text-anchor="start" x="231" y="-371.8" font-family="arial" font-size="14.00" fill="#000000">8&#45;pin</text>
<polygon fill="none" stroke="#000000" points="0,-341 0,-364 144,-364 144,-341 0,-341"/>
<text text-anchor="start" x="57.5" y="-348.8" font-family="arial" font-size="14.00" fill="#000000">C1P</text>
<polygon fill="none" stroke="#000000" points="144,-341 144,-364 268,-364 268,-341 144,-341"/>
<text text-anchor="start" x="201.5" y="-348.8" font-family="arial" font-size="14.00" fill="#000000">1</text>
<polygon fill="none" stroke="#000000" points="0,-318 0,-341 144,-341 144,-318 0,-318"/>
<text text-anchor="start" x="60.5" y="-325.8" font-family="arial" font-size="14.00" fill="#000000">C1I</text>
<polygon fill="none" stroke="#000000" points="144,-318 144,-341 268,-341 268,-318 144,-318"/>
<text text-anchor="start" x="201.5" y="-325.8" font-family="arial" font-size="14.00" fill="#000000">2</text>
<polygon fill="none" stroke="#000000" points="0,-295 0,-318 144,-318 144,-295 0,-295"/>
<text text-anchor="start" x="57.5" y="-302.8" font-family="arial" font-size="14.00" fill="#000000">C2P</text>
<polygon fill="none" stroke="#000000" points="144,-295 144,-318 268,-318 268,-295 144,-295"/>
<text text-anchor="start" x="201.5" y="-302.8" font-family="arial" font-size="14.00" fill="#000000">3</text>
<polygon fill="none" stroke="#000000" points="0,-272 0,-295 144,-295 144,-272 0,-272"/>
<text text-anchor="start" x="60.5" y="-279.8" font-family="arial" font-size="14.00" fill="#000000">C2I</text>
<polygon fill="none" stroke="#000000" points="144,-272 144,-295 268,-295 268,-272 144,-272"/>
<text text-anchor="start" x="201.5" y="-279.8" font-family="arial" font-size="14.00" fill="#000000">4</text>
<polygon fill="none" stroke="#000000" points="0,-249 0,-272 144,-272 144,-249 0,-249"/>
<text text-anchor="start" x="57.5" y="-256.8" font-family="arial" font-size="14.00" fill="#000000">C3P</text>
<polygon fill="none" stroke="#000000" points="144,-249 144,-272 268,-272 268,-249 144,-249"/>
<text text-anchor="start" x="201.5" y="-256.8" font-family="arial" font-size="14.00" fill="#000000">5</text>
<polygon fill="none" stroke="#000000" points="0,-226 0,-249 144,-249 144,-226 0,-226"/>
<text text-anchor="start" x="60.5" y="-233.8" font-family="arial" font-size="14.00" fill="#000000">C3I</text>
<polygon fill="none" stroke="#000000" points="144,-226 144,-249 268,-249 268,-226 144,-226"/>
<text text-anchor="start" x="201.5" y="-233.8" font-family="arial" font-size="14.00" fill="#000000">6</text>
<polygon fill="none" stroke="#000000" points="0,-203 0,-226 144,-226 144,-203 0,-203"/>
<text text-anchor="start" x="57.5" y="-210.8" font-family="arial" font-size="14.00" fill="#000000">C4P</text>
<polygon fill="none" stroke="#000000" points="144,-203 144,-226 268,-226 268,-203 144,-203"/>
<text text-anchor="start" x="201.5" y="-210.8" font-family="arial" font-size="14.00" fill="#000000">7</text>
<polygon fill="none" stroke="#000000" points="0,-180 0,-203 144,-203 144,-180 0,-180"/>
<text text-anchor="start" x="60.5" y="-187.8" font-family="arial" font-size="14.00" fill="#000000">C3I</text>
<polygon fill="none" stroke="#000000" points="144,-180 144,-203 268,-203 268,-180 144,-180"/>
<text text-anchor="start" x="201.5" y="-187.8" font-family="arial" font-size="14.00" fill="#000000">8</text>
<polygon fill="none" stroke="#000000" points="0,-157 0,-180 268,-180 268,-157 0,-157"/>
<text text-anchor="start" x="46" y="-164.8" font-family="arial" font-size="14.00" fill="#000000">Wiring for the 4 spark plugs</text>
</g>
<!-- 2PC1 -->
<g id="node6" class="node">
<title>2PC1</title>
<polygon fill="#ffffff" stroke="#000000" points="748,-608 412,-608 412,-474 748,-474 748,-608"/>
<polygon fill="none" stroke="#000000" points="412,-585 412,-608 748,-608 748,-585 412,-585"/>
<text text-anchor="start" x="561.5" y="-592.8" font-family="arial" font-size="14.00" fill="#000000">2PC1</text>
<polygon fill="none" stroke="#000000" points="412,-562 412,-585 561,-585 561,-562 412,-562"/>
<text text-anchor="start" x="478.5" y="-569.8" font-family="arial" font-size="14.00" fill="#000000">2x</text>
<polygon fill="none" stroke="#000000" points="561,-562 561,-585 748,-585 748,-562 561,-562"/>
<text text-anchor="start" x="627.5" y="-569.8" font-family="arial" font-size="14.00" fill="#000000">16 AWG</text>
<text text-anchor="start" x="492" y="-548.8" font-family="arial" font-size="14.00" fill="#000000"> </text>
<text text-anchor="start" x="414" y="-529.8" font-family="arial" font-size="14.00" fill="#000000">BULKHEAD_16G:1:C1P</text>
<text text-anchor="start" x="578" y="-529.8" font-family="arial" font-size="14.00" fill="#000000"> &#160;&#160;&#160;&#160;1:RD &#160;&#160;&#160;</text>
<text text-anchor="start" x="649" y="-529.8" font-family="arial" font-size="14.00" fill="#000000">DNS_1:1:PWR</text>
<polygon fill="#000000" stroke="transparent" points="412,-522 412,-524 748,-524 748,-522 412,-522"/>
<polygon fill="#ff0000" stroke="transparent" points="412,-520 412,-522 748,-522 748,-520 412,-520"/>
<polygon fill="#000000" stroke="transparent" points="412,-518 412,-520 748,-520 748,-518 412,-518"/>
<text text-anchor="start" x="417" y="-504.8" font-family="arial" font-size="14.00" fill="#000000">BULKHEAD_16G:2:C1I</text>
<text text-anchor="start" x="579" y="-504.8" font-family="arial" font-size="14.00" fill="#000000"> &#160;&#160;&#160;&#160;2:VT &#160;&#160;&#160;</text>
<text text-anchor="start" x="653" y="-504.8" font-family="arial" font-size="14.00" fill="#000000">DNS_1:2:IGN</text>
<polygon fill="#000000" stroke="transparent" points="412,-497 412,-499 748,-499 748,-497 412,-497"/>
<polygon fill="#8000ff" stroke="transparent" points="412,-495 412,-497 748,-497 748,-495 412,-495"/>
<polygon fill="#000000" stroke="transparent" points="412,-493 412,-495 748,-495 748,-493 412,-493"/>
<text text-anchor="start" x="492" y="-479.8" font-family="arial" font-size="14.00" fill="#000000"> </text>
</g>
<!-- BULKHEAD_16G&#45;&#45;2PC1 -->
<g id="edge1" class="edge">
<title>BULKHEAD_16G:e&#45;&#45;2PC1:w</title>
<path fill="none" stroke="#000000" stroke-width="2" d="M268,-351C368.2502,-353.5984 315.5666,-521.5984 412,-519"/>
<path fill="none" stroke="#ff0000" stroke-width="2" d="M268,-353C366.3418,-353 313.6582,-521 412,-521"/>
<path fill="none" stroke="#000000" stroke-width="2" d="M268,-355C364.4334,-352.4016 311.7498,-520.4016 412,-523"/>
</g>
<!-- BULKHEAD_16G&#45;&#45;2PC1 -->
<g id="edge3" class="edge">
<title>BULKHEAD_16G:e&#45;&#45;2PC1:w</title>
<path fill="none" stroke="#000000" stroke-width="2" d="M268,-328C367.5793,-330.5909 316.2421,-496.5909 412,-494"/>
<path fill="none" stroke="#8000ff" stroke-width="2" d="M268,-330C365.6686,-330 314.3314,-496 412,-496"/>
<path fill="none" stroke="#000000" stroke-width="2" d="M268,-332C363.7579,-329.4091 312.4207,-495.4091 412,-498"/>
</g>
<!-- 2PC2 -->
<g id="node7" class="node">
<title>2PC2</title>
<polygon fill="#ffffff" stroke="#000000" points="748,-450 412,-450 412,-316 748,-316 748,-450"/>
<polygon fill="none" stroke="#000000" points="412,-427 412,-450 748,-450 748,-427 412,-427"/>
<text text-anchor="start" x="561.5" y="-434.8" font-family="arial" font-size="14.00" fill="#000000">2PC2</text>
<polygon fill="none" stroke="#000000" points="412,-404 412,-427 561,-427 561,-404 412,-404"/>
<text text-anchor="start" x="478.5" y="-411.8" font-family="arial" font-size="14.00" fill="#000000">2x</text>
<polygon fill="none" stroke="#000000" points="561,-404 561,-427 748,-427 748,-404 561,-404"/>
<text text-anchor="start" x="627.5" y="-411.8" font-family="arial" font-size="14.00" fill="#000000">16 AWG</text>
<text text-anchor="start" x="492" y="-390.8" font-family="arial" font-size="14.00" fill="#000000"> </text>
<text text-anchor="start" x="414" y="-371.8" font-family="arial" font-size="14.00" fill="#000000">BULKHEAD_16G:3:C2P</text>
<text text-anchor="start" x="578" y="-371.8" font-family="arial" font-size="14.00" fill="#000000"> &#160;&#160;&#160;&#160;1:RD &#160;&#160;&#160;</text>
<text text-anchor="start" x="649" y="-371.8" font-family="arial" font-size="14.00" fill="#000000">DNS_2:1:PWR</text>
<polygon fill="#000000" stroke="transparent" points="412,-364 412,-366 748,-366 748,-364 412,-364"/>
<polygon fill="#ff0000" stroke="transparent" points="412,-362 412,-364 748,-364 748,-362 412,-362"/>
<polygon fill="#000000" stroke="transparent" points="412,-360 412,-362 748,-362 748,-360 412,-360"/>
<text text-anchor="start" x="417" y="-346.8" font-family="arial" font-size="14.00" fill="#000000">BULKHEAD_16G:4:C2I</text>
<text text-anchor="start" x="579" y="-346.8" font-family="arial" font-size="14.00" fill="#000000"> &#160;&#160;&#160;&#160;2:VT &#160;&#160;&#160;</text>
<text text-anchor="start" x="653" y="-346.8" font-family="arial" font-size="14.00" fill="#000000">DNS_2:2:IGN</text>
<polygon fill="#000000" stroke="transparent" points="412,-339 412,-341 748,-341 748,-339 412,-339"/>
<polygon fill="#8000ff" stroke="transparent" points="412,-337 412,-339 748,-339 748,-337 412,-337"/>
<polygon fill="#000000" stroke="transparent" points="412,-335 412,-337 748,-337 748,-335 412,-335"/>
<text text-anchor="start" x="492" y="-321.8" font-family="arial" font-size="14.00" fill="#000000"> </text>
</g>
<!-- BULKHEAD_16G&#45;&#45;2PC2 -->
<g id="edge5" class="edge">
<title>BULKHEAD_16G:e&#45;&#45;2PC2:w</title>
<path fill="none" stroke="#000000" stroke-width="2" d="M268,-305C338.6552,-306.7638 345.3168,-362.7638 412,-361"/>
<path fill="none" stroke="#ff0000" stroke-width="2" d="M268,-307C336.6692,-307 343.3308,-363 412,-363"/>
<path fill="none" stroke="#000000" stroke-width="2" d="M268,-309C334.6832,-307.2362 341.3448,-363.2362 412,-365"/>
</g>
<!-- BULKHEAD_16G&#45;&#45;2PC2 -->
<g id="edge7" class="edge">
<title>BULKHEAD_16G:e&#45;&#45;2PC2:w</title>
<path fill="none" stroke="#000000" stroke-width="2" d="M268,-281C338.4934,-282.7482 345.4747,-337.7482 412,-336"/>
<path fill="none" stroke="#8000ff" stroke-width="2" d="M268,-283C336.5093,-283 343.4907,-338 412,-338"/>
<path fill="none" stroke="#000000" stroke-width="2" d="M268,-285C334.5253,-283.2518 341.5066,-338.2518 412,-340"/>
</g>
<!-- 2PC3 -->
<g id="node8" class="node">
<title>2PC3</title>
<polygon fill="#ffffff" stroke="#000000" points="748,-292 412,-292 412,-158 748,-158 748,-292"/>
<polygon fill="none" stroke="#000000" points="412,-269 412,-292 748,-292 748,-269 412,-269"/>
<text text-anchor="start" x="561.5" y="-276.8" font-family="arial" font-size="14.00" fill="#000000">2PC3</text>
<polygon fill="none" stroke="#000000" points="412,-246 412,-269 561,-269 561,-246 412,-246"/>
<text text-anchor="start" x="478.5" y="-253.8" font-family="arial" font-size="14.00" fill="#000000">2x</text>
<polygon fill="none" stroke="#000000" points="561,-246 561,-269 748,-269 748,-246 561,-246"/>
<text text-anchor="start" x="627.5" y="-253.8" font-family="arial" font-size="14.00" fill="#000000">16 AWG</text>
<text text-anchor="start" x="492" y="-232.8" font-family="arial" font-size="14.00" fill="#000000"> </text>
<text text-anchor="start" x="414" y="-213.8" font-family="arial" font-size="14.00" fill="#000000">BULKHEAD_16G:5:C3P</text>
<text text-anchor="start" x="578" y="-213.8" font-family="arial" font-size="14.00" fill="#000000"> &#160;&#160;&#160;&#160;1:RD &#160;&#160;&#160;</text>
<text text-anchor="start" x="649" y="-213.8" font-family="arial" font-size="14.00" fill="#000000">DNS_3:1:PWR</text>
<polygon fill="#000000" stroke="transparent" points="412,-206 412,-208 748,-208 748,-206 412,-206"/>
<polygon fill="#ff0000" stroke="transparent" points="412,-204 412,-206 748,-206 748,-204 412,-204"/>
<polygon fill="#000000" stroke="transparent" points="412,-202 412,-204 748,-204 748,-202 412,-202"/>
<text text-anchor="start" x="417" y="-188.8" font-family="arial" font-size="14.00" fill="#000000">BULKHEAD_16G:6:C3I</text>
<text text-anchor="start" x="579" y="-188.8" font-family="arial" font-size="14.00" fill="#000000"> &#160;&#160;&#160;&#160;2:VT &#160;&#160;&#160;</text>
<text text-anchor="start" x="653" y="-188.8" font-family="arial" font-size="14.00" fill="#000000">DNS_3:2:IGN</text>
<polygon fill="#000000" stroke="transparent" points="412,-181 412,-183 748,-183 748,-181 412,-181"/>
<polygon fill="#8000ff" stroke="transparent" points="412,-179 412,-181 748,-181 748,-179 412,-179"/>
<polygon fill="#000000" stroke="transparent" points="412,-177 412,-179 748,-179 748,-177 412,-177"/>
<text text-anchor="start" x="492" y="-163.8" font-family="arial" font-size="14.00" fill="#000000"> </text>
</g>
<!-- BULKHEAD_16G&#45;&#45;2PC3 -->
<g id="edge9" class="edge">
<title>BULKHEAD_16G:e&#45;&#45;2PC3:w</title>
<path fill="none" stroke="#000000" stroke-width="2" d="M268,-258C334.5253,-259.7482 341.5066,-204.7482 412,-203"/>
<path fill="none" stroke="#ff0000" stroke-width="2" d="M268,-260C336.5093,-260 343.4907,-205 412,-205"/>
<path fill="none" stroke="#000000" stroke-width="2" d="M268,-262C338.4934,-260.2518 345.4747,-205.2518 412,-207"/>
</g>
<!-- BULKHEAD_16G&#45;&#45;2PC3 -->
<g id="edge11" class="edge">
<title>BULKHEAD_16G:e&#45;&#45;2PC3:w</title>
<path fill="none" stroke="#000000" stroke-width="2" d="M268,-235C334.8438,-236.779 341.1807,-179.779 412,-178"/>
<path fill="none" stroke="#8000ff" stroke-width="2" d="M268,-237C336.8315,-237 343.1685,-180 412,-180"/>
<path fill="none" stroke="#000000" stroke-width="2" d="M268,-239C338.8193,-237.221 345.1562,-180.221 412,-182"/>
</g>
<!-- 2PC4 -->
<g id="node9" class="node">
<title>2PC4</title>
<polygon fill="#ffffff" stroke="#000000" points="748,-134 412,-134 412,0 748,0 748,-134"/>
<polygon fill="none" stroke="#000000" points="412,-111 412,-134 748,-134 748,-111 412,-111"/>
<text text-anchor="start" x="561.5" y="-118.8" font-family="arial" font-size="14.00" fill="#000000">2PC4</text>
<polygon fill="none" stroke="#000000" points="412,-88 412,-111 561,-111 561,-88 412,-88"/>
<text text-anchor="start" x="478.5" y="-95.8" font-family="arial" font-size="14.00" fill="#000000">2x</text>
<polygon fill="none" stroke="#000000" points="561,-88 561,-111 748,-111 748,-88 561,-88"/>
<text text-anchor="start" x="627.5" y="-95.8" font-family="arial" font-size="14.00" fill="#000000">16 AWG</text>
<text text-anchor="start" x="492" y="-74.8" font-family="arial" font-size="14.00" fill="#000000"> </text>
<text text-anchor="start" x="414" y="-55.8" font-family="arial" font-size="14.00" fill="#000000">BULKHEAD_16G:7:C4P</text>
<text text-anchor="start" x="578" y="-55.8" font-family="arial" font-size="14.00" fill="#000000"> &#160;&#160;&#160;&#160;1:RD &#160;&#160;&#160;</text>
<text text-anchor="start" x="649" y="-55.8" font-family="arial" font-size="14.00" fill="#000000">DNS_4:1:PWR</text>
<polygon fill="#000000" stroke="transparent" points="412,-48 412,-50 748,-50 748,-48 412,-48"/>
<polygon fill="#ff0000" stroke="transparent" points="412,-46 412,-48 748,-48 748,-46 412,-46"/>
<polygon fill="#000000" stroke="transparent" points="412,-44 412,-46 748,-46 748,-44 412,-44"/>
<text text-anchor="start" x="417" y="-30.8" font-family="arial" font-size="14.00" fill="#000000">BULKHEAD_16G:8:C3I</text>
<text text-anchor="start" x="579" y="-30.8" font-family="arial" font-size="14.00" fill="#000000"> &#160;&#160;&#160;&#160;2:VT &#160;&#160;&#160;</text>
<text text-anchor="start" x="653" y="-30.8" font-family="arial" font-size="14.00" fill="#000000">DNS_4:2:IGN</text>
<polygon fill="#000000" stroke="transparent" points="412,-23 412,-25 748,-25 748,-23 412,-23"/>
<polygon fill="#8000ff" stroke="transparent" points="412,-21 412,-23 748,-23 748,-21 412,-21"/>
<polygon fill="#000000" stroke="transparent" points="412,-19 412,-21 748,-21 748,-19 412,-19"/>
<text text-anchor="start" x="492" y="-5.8" font-family="arial" font-size="14.00" fill="#000000"> </text>
</g>
<!-- BULKHEAD_16G&#45;&#45;2PC4 -->
<g id="edge13" class="edge">
<title>BULKHEAD_16G:e&#45;&#45;2PC4:w</title>
<path fill="none" stroke="#000000" stroke-width="2" d="M268,-212C364.0952,-214.5947 312.0857,-47.5947 412,-45"/>
<path fill="none" stroke="#ff0000" stroke-width="2" d="M268,-214C366.0048,-214 313.9952,-47 412,-47"/>
<path fill="none" stroke="#000000" stroke-width="2" d="M268,-216C367.9143,-213.4053 315.9048,-46.4053 412,-49"/>
</g>
<!-- BULKHEAD_16G&#45;&#45;2PC4 -->
<g id="edge15" class="edge">
<title>BULKHEAD_16G:e&#45;&#45;2PC4:w</title>
<path fill="none" stroke="#000000" stroke-width="2" d="M268,-189C364.7725,-191.6022 311.4131,-22.6022 412,-20"/>
<path fill="none" stroke="#8000ff" stroke-width="2" d="M268,-191C366.6797,-191 313.3203,-22 412,-22"/>
<path fill="none" stroke="#000000" stroke-width="2" d="M268,-193C368.5869,-190.3978 315.2275,-21.3978 412,-24"/>
</g>
<!-- DNS_1 -->
<g id="node2" class="node">
<title>DNS_1</title>
<polygon fill="#ffffff" stroke="#000000" points="1011,-578 892,-578 892,-486 1011,-486 1011,-578"/>
<polygon fill="none" stroke="#000000" points="892.5,-555 892.5,-578 1011.5,-578 1011.5,-555 892.5,-555"/>
<text text-anchor="start" x="928" y="-562.8" font-family="arial" font-size="14.00" fill="#000000">DNS_1</text>
<polygon fill="none" stroke="#000000" points="892.5,-532 892.5,-555 970.5,-555 970.5,-532 892.5,-532"/>
<text text-anchor="start" x="896.5" y="-539.8" font-family="arial" font-size="14.00" fill="#000000">Denso_2P</text>
<polygon fill="none" stroke="#000000" points="970.5,-532 970.5,-555 1011.5,-555 1011.5,-532 970.5,-532"/>
<text text-anchor="start" x="974.5" y="-539.8" font-family="arial" font-size="14.00" fill="#000000">2&#45;pin</text>
<polygon fill="none" stroke="#000000" points="892.5,-509 892.5,-532 939.5,-532 939.5,-509 892.5,-509"/>
<text text-anchor="start" x="911.5" y="-516.8" font-family="arial" font-size="14.00" fill="#000000">1</text>
<polygon fill="none" stroke="#000000" points="939.5,-509 939.5,-532 1011.5,-532 1011.5,-509 939.5,-509"/>
<text text-anchor="start" x="958.5" y="-516.8" font-family="arial" font-size="14.00" fill="#000000">PWR</text>
<polygon fill="none" stroke="#000000" points="892.5,-486 892.5,-509 939.5,-509 939.5,-486 892.5,-486"/>
<text text-anchor="start" x="911.5" y="-493.8" font-family="arial" font-size="14.00" fill="#000000">2</text>
<polygon fill="none" stroke="#000000" points="939.5,-486 939.5,-509 1011.5,-509 1011.5,-486 939.5,-486"/>
<text text-anchor="start" x="962.5" y="-493.8" font-family="arial" font-size="14.00" fill="#000000">IGN</text>
</g>
<!-- DNS_2 -->
<g id="node3" class="node">
<title>DNS_2</title>
<polygon fill="#ffffff" stroke="#000000" points="1011,-420 892,-420 892,-328 1011,-328 1011,-420"/>
<polygon fill="none" stroke="#000000" points="892.5,-397 892.5,-420 1011.5,-420 1011.5,-397 892.5,-397"/>
<text text-anchor="start" x="928" y="-404.8" font-family="arial" font-size="14.00" fill="#000000">DNS_2</text>
<polygon fill="none" stroke="#000000" points="892.5,-374 892.5,-397 970.5,-397 970.5,-374 892.5,-374"/>
<text text-anchor="start" x="896.5" y="-381.8" font-family="arial" font-size="14.00" fill="#000000">Denso_2P</text>
<polygon fill="none" stroke="#000000" points="970.5,-374 970.5,-397 1011.5,-397 1011.5,-374 970.5,-374"/>
<text text-anchor="start" x="974.5" y="-381.8" font-family="arial" font-size="14.00" fill="#000000">2&#45;pin</text>
<polygon fill="none" stroke="#000000" points="892.5,-351 892.5,-374 939.5,-374 939.5,-351 892.5,-351"/>
<text text-anchor="start" x="911.5" y="-358.8" font-family="arial" font-size="14.00" fill="#000000">1</text>
<polygon fill="none" stroke="#000000" points="939.5,-351 939.5,-374 1011.5,-374 1011.5,-351 939.5,-351"/>
<text text-anchor="start" x="958.5" y="-358.8" font-family="arial" font-size="14.00" fill="#000000">PWR</text>
<polygon fill="none" stroke="#000000" points="892.5,-328 892.5,-351 939.5,-351 939.5,-328 892.5,-328"/>
<text text-anchor="start" x="911.5" y="-335.8" font-family="arial" font-size="14.00" fill="#000000">2</text>
<polygon fill="none" stroke="#000000" points="939.5,-328 939.5,-351 1011.5,-351 1011.5,-328 939.5,-328"/>
<text text-anchor="start" x="962.5" y="-335.8" font-family="arial" font-size="14.00" fill="#000000">IGN</text>
</g>
<!-- DNS_3 -->
<g id="node4" class="node">
<title>DNS_3</title>
<polygon fill="#ffffff" stroke="#000000" points="1011,-262 892,-262 892,-170 1011,-170 1011,-262"/>
<polygon fill="none" stroke="#000000" points="892.5,-239 892.5,-262 1011.5,-262 1011.5,-239 892.5,-239"/>
<text text-anchor="start" x="928" y="-246.8" font-family="arial" font-size="14.00" fill="#000000">DNS_3</text>
<polygon fill="none" stroke="#000000" points="892.5,-216 892.5,-239 970.5,-239 970.5,-216 892.5,-216"/>
<text text-anchor="start" x="896.5" y="-223.8" font-family="arial" font-size="14.00" fill="#000000">Denso_2P</text>
<polygon fill="none" stroke="#000000" points="970.5,-216 970.5,-239 1011.5,-239 1011.5,-216 970.5,-216"/>
<text text-anchor="start" x="974.5" y="-223.8" font-family="arial" font-size="14.00" fill="#000000">2&#45;pin</text>
<polygon fill="none" stroke="#000000" points="892.5,-193 892.5,-216 939.5,-216 939.5,-193 892.5,-193"/>
<text text-anchor="start" x="911.5" y="-200.8" font-family="arial" font-size="14.00" fill="#000000">1</text>
<polygon fill="none" stroke="#000000" points="939.5,-193 939.5,-216 1011.5,-216 1011.5,-193 939.5,-193"/>
<text text-anchor="start" x="958.5" y="-200.8" font-family="arial" font-size="14.00" fill="#000000">PWR</text>
<polygon fill="none" stroke="#000000" points="892.5,-170 892.5,-193 939.5,-193 939.5,-170 892.5,-170"/>
<text text-anchor="start" x="911.5" y="-177.8" font-family="arial" font-size="14.00" fill="#000000">2</text>
<polygon fill="none" stroke="#000000" points="939.5,-170 939.5,-193 1011.5,-193 1011.5,-170 939.5,-170"/>
<text text-anchor="start" x="962.5" y="-177.8" font-family="arial" font-size="14.00" fill="#000000">IGN</text>
</g>
<!-- DNS_4 -->
<g id="node5" class="node">
<title>DNS_4</title>
<polygon fill="#ffffff" stroke="#000000" points="1011,-104 892,-104 892,-12 1011,-12 1011,-104"/>
<polygon fill="none" stroke="#000000" points="892.5,-81 892.5,-104 1011.5,-104 1011.5,-81 892.5,-81"/>
<text text-anchor="start" x="928" y="-88.8" font-family="arial" font-size="14.00" fill="#000000">DNS_4</text>
<polygon fill="none" stroke="#000000" points="892.5,-58 892.5,-81 970.5,-81 970.5,-58 892.5,-58"/>
<text text-anchor="start" x="896.5" y="-65.8" font-family="arial" font-size="14.00" fill="#000000">Denso_2P</text>
<polygon fill="none" stroke="#000000" points="970.5,-58 970.5,-81 1011.5,-81 1011.5,-58 970.5,-58"/>
<text text-anchor="start" x="974.5" y="-65.8" font-family="arial" font-size="14.00" fill="#000000">2&#45;pin</text>
<polygon fill="none" stroke="#000000" points="892.5,-35 892.5,-58 939.5,-58 939.5,-35 892.5,-35"/>
<text text-anchor="start" x="911.5" y="-42.8" font-family="arial" font-size="14.00" fill="#000000">1</text>
<polygon fill="none" stroke="#000000" points="939.5,-35 939.5,-58 1011.5,-58 1011.5,-35 939.5,-35"/>
<text text-anchor="start" x="958.5" y="-42.8" font-family="arial" font-size="14.00" fill="#000000">PWR</text>
<polygon fill="none" stroke="#000000" points="892.5,-12 892.5,-35 939.5,-35 939.5,-12 892.5,-12"/>
<text text-anchor="start" x="911.5" y="-19.8" font-family="arial" font-size="14.00" fill="#000000">2</text>
<polygon fill="none" stroke="#000000" points="939.5,-12 939.5,-35 1011.5,-35 1011.5,-12 939.5,-12"/>
<text text-anchor="start" x="962.5" y="-19.8" font-family="arial" font-size="14.00" fill="#000000">IGN</text>
</g>
<!-- 2PC1&#45;&#45;DNS_1 -->
<g id="edge2" class="edge">
<title>2PC1:e&#45;&#45;DNS_1:w</title>
<path fill="none" stroke="#000000" stroke-width="2" d="M748,-519C812.0994,-519.0039 828.1519,-518.0039 892.5,-518"/>
<path fill="none" stroke="#ff0000" stroke-width="2" d="M748,-521C812.2238,-521 828.2762,-520 892.5,-520"/>
<path fill="none" stroke="#000000" stroke-width="2" d="M748,-523C812.3481,-522.9961 828.4006,-521.9961 892.5,-522"/>
</g>
<!-- 2PC1&#45;&#45;DNS_1 -->
<g id="edge4" class="edge">
<title>2PC1:e&#45;&#45;DNS_1:w</title>
<path fill="none" stroke="#000000" stroke-width="2" d="M748,-494C812.3481,-494.0039 828.4006,-495.0039 892.5,-495"/>
<path fill="none" stroke="#8000ff" stroke-width="2" d="M748,-496C812.2238,-496 828.2762,-497 892.5,-497"/>
<path fill="none" stroke="#000000" stroke-width="2" d="M748,-498C812.0994,-497.9961 828.1519,-498.9961 892.5,-499"/>
</g>
<!-- 2PC2&#45;&#45;DNS_2 -->
<g id="edge6" class="edge">
<title>2PC2:e&#45;&#45;DNS_2:w</title>
<path fill="none" stroke="#000000" stroke-width="2" d="M748,-361C812.0994,-361.0039 828.1519,-360.0039 892.5,-360"/>
<path fill="none" stroke="#ff0000" stroke-width="2" d="M748,-363C812.2238,-363 828.2762,-362 892.5,-362"/>
<path fill="none" stroke="#000000" stroke-width="2" d="M748,-365C812.3481,-364.9961 828.4006,-363.9961 892.5,-364"/>
</g>
<!-- 2PC2&#45;&#45;DNS_2 -->
<g id="edge8" class="edge">
<title>2PC2:e&#45;&#45;DNS_2:w</title>
<path fill="none" stroke="#000000" stroke-width="2" d="M748,-336C812.3481,-336.0039 828.4006,-337.0039 892.5,-337"/>
<path fill="none" stroke="#8000ff" stroke-width="2" d="M748,-338C812.2238,-338 828.2762,-339 892.5,-339"/>
<path fill="none" stroke="#000000" stroke-width="2" d="M748,-340C812.0994,-339.9961 828.1519,-340.9961 892.5,-341"/>
</g>
<!-- 2PC3&#45;&#45;DNS_3 -->
<g id="edge10" class="edge">
<title>2PC3:e&#45;&#45;DNS_3:w</title>
<path fill="none" stroke="#000000" stroke-width="2" d="M748,-203C812.0994,-203.0039 828.1519,-202.0039 892.5,-202"/>
<path fill="none" stroke="#ff0000" stroke-width="2" d="M748,-205C812.2238,-205 828.2762,-204 892.5,-204"/>
<path fill="none" stroke="#000000" stroke-width="2" d="M748,-207C812.3481,-206.9961 828.4006,-205.9961 892.5,-206"/>
</g>
<!-- 2PC3&#45;&#45;DNS_3 -->
<g id="edge12" class="edge">
<title>2PC3:e&#45;&#45;DNS_3:w</title>
<path fill="none" stroke="#000000" stroke-width="2" d="M748,-178C812.3481,-178.0039 828.4006,-179.0039 892.5,-179"/>
<path fill="none" stroke="#8000ff" stroke-width="2" d="M748,-180C812.2238,-180 828.2762,-181 892.5,-181"/>
<path fill="none" stroke="#000000" stroke-width="2" d="M748,-182C812.0994,-181.9961 828.1519,-182.9961 892.5,-183"/>
</g>
<!-- 2PC4&#45;&#45;DNS_4 -->
<g id="edge14" class="edge">
<title>2PC4:e&#45;&#45;DNS_4:w</title>
<path fill="none" stroke="#000000" stroke-width="2" d="M748,-45C812.0994,-45.0039 828.1519,-44.0039 892.5,-44"/>
<path fill="none" stroke="#ff0000" stroke-width="2" d="M748,-47C812.2238,-47 828.2762,-46 892.5,-46"/>
<path fill="none" stroke="#000000" stroke-width="2" d="M748,-49C812.3481,-48.9961 828.4006,-47.9961 892.5,-48"/>
</g>
<!-- 2PC4&#45;&#45;DNS_4 -->
<g id="edge16" class="edge">
<title>2PC4:e&#45;&#45;DNS_4:w</title>
<path fill="none" stroke="#000000" stroke-width="2" d="M748,-20C812.3481,-20.0039 828.4006,-21.0039 892.5,-21"/>
<path fill="none" stroke="#8000ff" stroke-width="2" d="M748,-22C812.2238,-22 828.2762,-23 892.5,-23"/>
<path fill="none" stroke="#000000" stroke-width="2" d="M748,-24C812.0994,-23.9961 828.1519,-24.9961 892.5,-25"/>
</g>
</g>
</svg>
