<?xml version="1.0" encoding="UTF-8" standalone="no"?>
<!DOCTYPE svg PUBLIC "-//W3C//DTD SVG 1.1//EN"
 "http://www.w3.org/Graphics/SVG/1.1/DTD/svg11.dtd">
<!-- Generated by graphviz version 2.49.3 (20211023.0002)
 -->
<!-- Pages: 1 -->
<svg width="717pt" height="559pt"
 viewBox="0.00 0.00 716.50 559.00" xmlns="http://www.w3.org/2000/svg" xmlns:xlink="http://www.w3.org/1999/xlink">
<g id="graph0" class="graph" transform="scale(1 1) rotate(0) translate(4 555)">
<polygon fill="white" stroke="transparent" points="-4,4 -4,-555 712.5,-555 712.5,4 -4,4"/>
<!-- C -->
<g id="node1" class="node">
<title>C</title>
<polygon fill="#ffffff" stroke="black" points="182,-551 0,-551 0,-298 182,-298 182,-551"/>
<polygon fill="none" stroke="black" points="0,-527.5 0,-550.5 182,-550.5 182,-527.5 0,-527.5"/>
<text text-anchor="start" x="85.5" y="-535.3" font-family="arial" font-size="14.00">C</text>
<polygon fill="none" stroke="black" points="0,-504.5 0,-527.5 58,-527.5 58,-504.5 0,-504.5"/>
<text text-anchor="start" x="12.5" y="-512.3" font-family="arial" font-size="14.00">Coils</text>
<polygon fill="none" stroke="black" points="58,-504.5 58,-527.5 126,-527.5 126,-504.5 58,-504.5"/>
<text text-anchor="start" x="70" y="-512.3" font-family="arial" font-size="14.00">female</text>
<polygon fill="none" stroke="black" points="126,-504.5 126,-527.5 182,-527.5 182,-504.5 126,-504.5"/>
<text text-anchor="start" x="138" y="-512.3" font-family="arial" font-size="14.00">8&#45;pin</text>
<polygon fill="none" stroke="black" points="0,-481.5 0,-504.5 101,-504.5 101,-481.5 0,-481.5"/>
<text text-anchor="start" x="36" y="-489.3" font-family="arial" font-size="14.00">C1P</text>
<polygon fill="none" stroke="black" points="101,-481.5 101,-504.5 182,-504.5 182,-481.5 101,-481.5"/>
<text text-anchor="start" x="137" y="-489.3" font-family="arial" font-size="14.00">1</text>
<polygon fill="none" stroke="black" points="0,-458.5 0,-481.5 101,-481.5 101,-458.5 0,-458.5"/>
<text text-anchor="start" x="38.5" y="-466.3" font-family="arial" font-size="14.00">C1I</text>
<polygon fill="none" stroke="black" points="101,-458.5 101,-481.5 182,-481.5 182,-458.5 101,-458.5"/>
<text text-anchor="start" x="137" y="-466.3" font-family="arial" font-size="14.00">2</text>
<polygon fill="none" stroke="black" points="0,-435.5 0,-458.5 101,-458.5 101,-435.5 0,-435.5"/>
<text text-anchor="start" x="36" y="-443.3" font-family="arial" font-size="14.00">C2P</text>
<polygon fill="none" stroke="black" points="101,-435.5 101,-458.5 182,-458.5 182,-435.5 101,-435.5"/>
<text text-anchor="start" x="137" y="-443.3" font-family="arial" font-size="14.00">3</text>
<polygon fill="none" stroke="black" points="0,-412.5 0,-435.5 101,-435.5 101,-412.5 0,-412.5"/>
<text text-anchor="start" x="38.5" y="-420.3" font-family="arial" font-size="14.00">C2I</text>
<polygon fill="none" stroke="black" points="101,-412.5 101,-435.5 182,-435.5 182,-412.5 101,-412.5"/>
<text text-anchor="start" x="137" y="-420.3" font-family="arial" font-size="14.00">4</text>
<polygon fill="none" stroke="black" points="0,-389.5 0,-412.5 101,-412.5 101,-389.5 0,-389.5"/>
<text text-anchor="start" x="36" y="-397.3" font-family="arial" font-size="14.00">C3P</text>
<polygon fill="none" stroke="black" points="101,-389.5 101,-412.5 182,-412.5 182,-389.5 101,-389.5"/>
<text text-anchor="start" x="137" y="-397.3" font-family="arial" font-size="14.00">5</text>
<polygon fill="none" stroke="black" points="0,-366.5 0,-389.5 101,-389.5 101,-366.5 0,-366.5"/>
<text text-anchor="start" x="38.5" y="-374.3" font-family="arial" font-size="14.00">C3I</text>
<polygon fill="none" stroke="black" points="101,-366.5 101,-389.5 182,-389.5 182,-366.5 101,-366.5"/>
<text text-anchor="start" x="137" y="-374.3" font-family="arial" font-size="14.00">6</text>
<polygon fill="none" stroke="black" points="0,-343.5 0,-366.5 101,-366.5 101,-343.5 0,-343.5"/>
<text text-anchor="start" x="36" y="-351.3" font-family="arial" font-size="14.00">C4P</text>
<polygon fill="none" stroke="black" points="101,-343.5 101,-366.5 182,-366.5 182,-343.5 101,-343.5"/>
<text text-anchor="start" x="137" y="-351.3" font-family="arial" font-size="14.00">7</text>
<polygon fill="none" stroke="black" points="0,-320.5 0,-343.5 101,-343.5 101,-320.5 0,-320.5"/>
<text text-anchor="start" x="38.5" y="-328.3" font-family="arial" font-size="14.00">C3I</text>
<polygon fill="none" stroke="black" points="101,-320.5 101,-343.5 182,-343.5 182,-320.5 101,-320.5"/>
<text text-anchor="start" x="137" y="-328.3" font-family="arial" font-size="14.00">8</text>
<polygon fill="none" stroke="black" points="0,-297.5 0,-320.5 182,-320.5 182,-297.5 0,-297.5"/>
<text text-anchor="start" x="4" y="-305.3" font-family="arial" font-size="14.00">Wiring for the 4 spark plugs</text>
</g>
<!-- One -->
<g id="node6" class="node">
<title>One</title>
<polygon fill="#ffffff" stroke="black" points="388.5,-262 181.5,-262 181.5,-128 388.5,-128 388.5,-262"/>
<polygon fill="none" stroke="black" points="182,-239 182,-262 389,-262 389,-239 182,-239"/>
<text text-anchor="start" x="271.5" y="-246.8" font-family="arial" font-size="14.00">One</text>
<polygon fill="none" stroke="black" points="182,-216 182,-239 266,-239 266,-216 182,-216"/>
<text text-anchor="start" x="216" y="-223.8" font-family="arial" font-size="14.00">2x</text>
<polygon fill="none" stroke="black" points="266,-216 266,-239 389,-239 389,-216 266,-216"/>
<text text-anchor="start" x="299.5" y="-223.8" font-family="arial" font-size="14.00">16 AWG</text>
<text text-anchor="start" x="209.5" y="-202.8" font-family="arial" font-size="14.00"> </text>
<text text-anchor="start" x="184" y="-183.8" font-family="arial" font-size="14.00">C:1:C1P</text>
<text text-anchor="start" x="243" y="-183.8" font-family="arial" font-size="14.00"> &#160;&#160;&#160;&#160;1:RD &#160;&#160;&#160;</text>
<text text-anchor="start" x="314" y="-183.8" font-family="arial" font-size="14.00">DNS_1:1:P</text>
<polygon fill="#000000" stroke="transparent" points="182,-176 182,-178 389,-178 389,-176 182,-176"/>
<polygon fill="#ff0000" stroke="transparent" points="182,-174 182,-176 389,-176 389,-174 182,-174"/>
<polygon fill="#000000" stroke="transparent" points="182,-172 182,-174 389,-174 389,-172 182,-172"/>
<text text-anchor="start" x="186.5" y="-158.8" font-family="arial" font-size="14.00">C:2:C1I</text>
<text text-anchor="start" x="244" y="-158.8" font-family="arial" font-size="14.00"> &#160;&#160;&#160;&#160;2:VT &#160;&#160;&#160;</text>
<text text-anchor="start" x="317" y="-158.8" font-family="arial" font-size="14.00">DNS_1:2:I</text>
<polygon fill="#000000" stroke="transparent" points="182,-151 182,-153 389,-153 389,-151 182,-151"/>
<polygon fill="#8000ff" stroke="transparent" points="182,-149 182,-151 389,-151 389,-149 182,-149"/>
<polygon fill="#000000" stroke="transparent" points="182,-147 182,-149 389,-149 389,-147 182,-147"/>
<text text-anchor="start" x="209.5" y="-133.8" font-family="arial" font-size="14.00"> </text>
</g>
<!-- C&#45;&#45;One -->
<g id="edge1" class="edge">
<title>C:e&#45;&#45;One:w</title>
<path fill="none" stroke="#000000" stroke-width="2" d="M183,-491.5C268.33,-494.75 181.02,-386.14 180,-298.01 180.08,-244.59 124.78,-176.26 181,-173"/>
<path fill="none" stroke="#ff0000" stroke-width="2" d="M183,-493.5C269.89,-493.5 182.58,-384.89 182,-298 181.64,-243.33 126.33,-175 181,-175"/>
<path fill="none" stroke="#000000" stroke-width="2" d="M183,-495.5C271.45,-492.25 184.13,-383.64 184,-297.99 183.19,-242.07 127.89,-173.74 181,-177"/>
</g>
<!-- C&#45;&#45;One -->
<g id="edge3" class="edge">
<title>C:e&#45;&#45;One:w</title>
<path fill="none" stroke="#000000" stroke-width="2" d="M183,-468.5C258.11,-471.75 180.92,-375.92 180,-298.01 180.03,-233.48 113.66,-151.26 181,-148"/>
<path fill="none" stroke="#8000ff" stroke-width="2" d="M183,-470.5C259.67,-470.5 182.48,-374.67 182,-298 181.59,-232.22 115.22,-150 181,-150"/>
<path fill="none" stroke="#000000" stroke-width="2" d="M183,-472.5C261.23,-469.25 184.04,-373.41 184,-297.99 183.14,-230.97 116.78,-148.74 181,-152"/>
</g>
<!-- C&#45;&#45;One -->
<g id="edge5" class="edge">
<title>C:e&#45;&#45;One:w</title>
<path fill="none" stroke="#000000" stroke-width="2" d="M183,-445.5C247.89,-448.76 180.94,-365.7 180,-298.01 180.04,-244.59 124.78,-176.26 181,-173"/>
<path fill="none" stroke="#ff0000" stroke-width="2" d="M183,-447.5C249.45,-447.5 182.49,-364.44 182,-298 181.59,-243.33 126.33,-175 181,-175"/>
<path fill="none" stroke="#000000" stroke-width="2" d="M183,-449.5C251,-446.24 184.05,-363.19 184,-297.99 183.15,-242.08 127.89,-173.74 181,-177"/>
</g>
<!-- C&#45;&#45;One -->
<g id="edge7" class="edge">
<title>C:e&#45;&#45;One:w</title>
<path fill="none" stroke="#000000" stroke-width="2" d="M183,-421.5C303.07,-424.83 57.95,-151.33 181,-148"/>
<path fill="none" stroke="#8000ff" stroke-width="2" d="M183,-423.5C304.56,-423.5 59.44,-150 181,-150"/>
<path fill="none" stroke="#000000" stroke-width="2" d="M183,-425.5C306.05,-422.17 60.93,-148.67 181,-152"/>
</g>
<!-- C&#45;&#45;One -->
<g id="edge9" class="edge">
<title>C:e&#45;&#45;One:w</title>
<path fill="none" stroke="#000000" stroke-width="2" d="M183,-398.5C281.74,-401.84 79.29,-176.34 181,-173"/>
<path fill="none" stroke="#ff0000" stroke-width="2" d="M183,-400.5C283.23,-400.5 80.77,-175 181,-175"/>
<path fill="none" stroke="#000000" stroke-width="2" d="M183,-402.5C284.71,-399.16 82.26,-173.66 181,-177"/>
</g>
<!-- C&#45;&#45;One -->
<g id="edge11" class="edge">
<title>C:e&#45;&#45;One:w</title>
<path fill="none" stroke="#000000" stroke-width="2" d="M183,-375.5C282.63,-378.84 78.4,-151.34 181,-148"/>
<path fill="none" stroke="#8000ff" stroke-width="2" d="M183,-377.5C284.12,-377.5 79.88,-150 181,-150"/>
<path fill="none" stroke="#000000" stroke-width="2" d="M183,-379.5C285.6,-376.16 81.37,-148.66 181,-152"/>
</g>
<!-- C&#45;&#45;One -->
<g id="edge13" class="edge">
<title>C:e&#45;&#45;One:w</title>
<path fill="none" stroke="#000000" stroke-width="2" d="M183,-352.5C261.3,-355.84 99.73,-176.34 181,-173"/>
<path fill="none" stroke="#ff0000" stroke-width="2" d="M183,-354.5C262.78,-354.5 101.22,-175 181,-175"/>
<path fill="none" stroke="#000000" stroke-width="2" d="M183,-356.5C264.27,-353.16 102.7,-173.66 181,-177"/>
</g>
<!-- C&#45;&#45;One -->
<g id="edge15" class="edge">
<title>C:e&#45;&#45;One:w</title>
<path fill="none" stroke="#000000" stroke-width="2" d="M183,-329.5C212.34,-332.77 180.81,-294.16 180,-262.02 179.86,-213.48 129.66,-151.26 181,-148"/>
<path fill="none" stroke="#8000ff" stroke-width="2" d="M183,-331.5C213.89,-331.5 182.36,-292.89 182,-262 181.42,-212.22 131.22,-150 181,-150"/>
<path fill="none" stroke="#000000" stroke-width="2" d="M183,-333.5C215.44,-330.23 183.91,-291.62 184,-261.98 182.98,-210.97 132.78,-148.74 181,-152"/>
</g>
<!-- DNS_1 -->
<g id="node2" class="node">
<title>DNS_1</title>
<polygon fill="#ffffff" stroke="black" points="303.5,-92 186.5,-92 186.5,0 303.5,0 303.5,-92"/>
<polygon fill="none" stroke="black" points="187,-69 187,-92 304,-92 304,-69 187,-69"/>
<text text-anchor="start" x="222" y="-76.8" font-family="arial" font-size="14.00">DNS_1</text>
<polygon fill="none" stroke="black" points="187,-46 187,-69 264,-69 264,-46 187,-46"/>
<text text-anchor="start" x="191" y="-53.8" font-family="arial" font-size="14.00">Denso_2P</text>
<polygon fill="none" stroke="black" points="264,-46 264,-69 304,-69 304,-46 264,-46"/>
<text text-anchor="start" x="268" y="-53.8" font-family="arial" font-size="14.00">2&#45;pin</text>
<polygon fill="none" stroke="black" points="187,-23 187,-46 245,-46 245,-23 187,-23"/>
<text text-anchor="start" x="211.5" y="-30.8" font-family="arial" font-size="14.00">1</text>
<polygon fill="none" stroke="black" points="245,-23 245,-46 304,-46 304,-23 245,-23"/>
<text text-anchor="start" x="269.5" y="-30.8" font-family="arial" font-size="14.00">P</text>
<polygon fill="none" stroke="black" points="187,0 187,-23 245,-23 245,0 187,0"/>
<text text-anchor="start" x="211.5" y="-7.8" font-family="arial" font-size="14.00">2</text>
<polygon fill="none" stroke="black" points="245,0 245,-23 304,-23 304,0 245,0"/>
<text text-anchor="start" x="272" y="-7.8" font-family="arial" font-size="14.00">I</text>
</g>
<!-- DNS_2 -->
<g id="node3" class="node">
<title>DNS_2</title>
<polygon fill="#ffffff" stroke="black" points="438.5,-92 321.5,-92 321.5,0 438.5,0 438.5,-92"/>
<polygon fill="none" stroke="black" points="322,-69 322,-92 439,-92 439,-69 322,-69"/>
<text text-anchor="start" x="357" y="-76.8" font-family="arial" font-size="14.00">DNS_2</text>
<polygon fill="none" stroke="black" points="322,-46 322,-69 399,-69 399,-46 322,-46"/>
<text text-anchor="start" x="326" y="-53.8" font-family="arial" font-size="14.00">Denso_2P</text>
<polygon fill="none" stroke="black" points="399,-46 399,-69 439,-69 439,-46 399,-46"/>
<text text-anchor="start" x="403" y="-53.8" font-family="arial" font-size="14.00">2&#45;pin</text>
<polygon fill="none" stroke="black" points="322,-23 322,-46 380,-46 380,-23 322,-23"/>
<text text-anchor="start" x="346.5" y="-30.8" font-family="arial" font-size="14.00">1</text>
<polygon fill="none" stroke="black" points="380,-23 380,-46 439,-46 439,-23 380,-23"/>
<text text-anchor="start" x="404.5" y="-30.8" font-family="arial" font-size="14.00">P</text>
<polygon fill="none" stroke="black" points="322,0 322,-23 380,-23 380,0 322,0"/>
<text text-anchor="start" x="346.5" y="-7.8" font-family="arial" font-size="14.00">2</text>
<polygon fill="none" stroke="black" points="380,0 380,-23 439,-23 439,0 380,0"/>
<text text-anchor="start" x="407" y="-7.8" font-family="arial" font-size="14.00">I</text>
</g>
<!-- DNS_3 -->
<g id="node4" class="node">
<title>DNS_3</title>
<polygon fill="#ffffff" stroke="black" points="573.5,-92 456.5,-92 456.5,0 573.5,0 573.5,-92"/>
<polygon fill="none" stroke="black" points="457,-69 457,-92 574,-92 574,-69 457,-69"/>
<text text-anchor="start" x="492" y="-76.8" font-family="arial" font-size="14.00">DNS_3</text>
<polygon fill="none" stroke="black" points="457,-46 457,-69 534,-69 534,-46 457,-46"/>
<text text-anchor="start" x="461" y="-53.8" font-family="arial" font-size="14.00">Denso_2P</text>
<polygon fill="none" stroke="black" points="534,-46 534,-69 574,-69 574,-46 534,-46"/>
<text text-anchor="start" x="538" y="-53.8" font-family="arial" font-size="14.00">2&#45;pin</text>
<polygon fill="none" stroke="black" points="457,-23 457,-46 515,-46 515,-23 457,-23"/>
<text text-anchor="start" x="481.5" y="-30.8" font-family="arial" font-size="14.00">1</text>
<polygon fill="none" stroke="black" points="515,-23 515,-46 574,-46 574,-23 515,-23"/>
<text text-anchor="start" x="539.5" y="-30.8" font-family="arial" font-size="14.00">P</text>
<polygon fill="none" stroke="black" points="457,0 457,-23 515,-23 515,0 457,0"/>
<text text-anchor="start" x="481.5" y="-7.8" font-family="arial" font-size="14.00">2</text>
<polygon fill="none" stroke="black" points="515,0 515,-23 574,-23 574,0 515,0"/>
<text text-anchor="start" x="542" y="-7.8" font-family="arial" font-size="14.00">I</text>
</g>
<!-- DNS_4 -->
<g id="node5" class="node">
<title>DNS_4</title>
<polygon fill="#ffffff" stroke="black" points="708.5,-92 591.5,-92 591.5,0 708.5,0 708.5,-92"/>
<polygon fill="none" stroke="black" points="592,-69 592,-92 709,-92 709,-69 592,-69"/>
<text text-anchor="start" x="627" y="-76.8" font-family="arial" font-size="14.00">DNS_4</text>
<polygon fill="none" stroke="black" points="592,-46 592,-69 669,-69 669,-46 592,-46"/>
<text text-anchor="start" x="596" y="-53.8" font-family="arial" font-size="14.00">Denso_2P</text>
<polygon fill="none" stroke="black" points="669,-46 669,-69 709,-69 709,-46 669,-46"/>
<text text-anchor="start" x="673" y="-53.8" font-family="arial" font-size="14.00">2&#45;pin</text>
<polygon fill="none" stroke="black" points="592,-23 592,-46 650,-46 650,-23 592,-23"/>
<text text-anchor="start" x="616.5" y="-30.8" font-family="arial" font-size="14.00">1</text>
<polygon fill="none" stroke="black" points="650,-23 650,-46 709,-46 709,-23 650,-23"/>
<text text-anchor="start" x="674.5" y="-30.8" font-family="arial" font-size="14.00">P</text>
<polygon fill="none" stroke="black" points="592,0 592,-23 650,-23 650,0 592,0"/>
<text text-anchor="start" x="616.5" y="-7.8" font-family="arial" font-size="14.00">2</text>
<polygon fill="none" stroke="black" points="650,0 650,-23 709,-23 709,0 650,0"/>
<text text-anchor="start" x="677" y="-7.8" font-family="arial" font-size="14.00">I</text>
</g>
<!-- One&#45;&#45;DNS_1 -->
<g id="edge2" class="edge">
<title>One:e&#45;&#45;DNS_1:w</title>
<path fill="none" stroke="#000000" stroke-width="2" d="M390,-173C408.96,-175.52 400.65,-144.39 387.48,-129.3 331.26,-59.98 247.71,-162.67 185.48,-93.3 168.34,-72.89 158.28,-34.51 186,-32"/>
<path fill="none" stroke="#ff0000" stroke-width="2" d="M390,-175C410.89,-175 402.59,-143.87 389,-128 329.71,-58.72 246.15,-161.4 187,-92 170.28,-72.38 160.22,-34 186,-34"/>
<path fill="none" stroke="#000000" stroke-width="2" d="M390,-177C412.83,-174.48 404.52,-143.36 390.52,-126.7 328.16,-57.45 244.6,-160.14 188.52,-90.7 172.21,-71.87 162.15,-33.49 186,-36"/>
</g>
<!-- One&#45;&#45;DNS_1 -->
<g id="edge4" class="edge">
<title>One:e&#45;&#45;DNS_1:w</title>
<path fill="none" stroke="#000000" stroke-width="2" d="M390,-148C397.87,-150.57 393.54,-135.93 387.5,-129.32 330.43,-60.7 247.54,-162.81 185.47,-93.29 161.78,-65.04 148.06,-11.5 186,-9"/>
<path fill="none" stroke="#8000ff" stroke-width="2" d="M390,-150C399.79,-150 395.45,-135.36 389,-128 328.87,-59.44 245.98,-161.55 187,-92 163.71,-64.54 150,-11 186,-11"/>
<path fill="none" stroke="#000000" stroke-width="2" d="M390,-152C401.71,-149.43 397.37,-134.79 390.5,-126.68 327.32,-58.18 244.43,-160.29 188.53,-90.71 165.65,-64.05 151.93,-10.5 186,-13"/>
</g>
<!-- One&#45;&#45;DNS_2 -->
<g id="edge6" class="edge">
<title>One:e&#45;&#45;DNS_2:w</title>
<path fill="none" stroke="#000000" stroke-width="2" d="M390,-173C409.02,-175.7 398.04,-146.52 387.29,-129.04 372.47,-100.82 340.72,-122.51 320.29,-93.04 313.31,-81.3 306.13,-34.3 321,-32"/>
<path fill="none" stroke="#ff0000" stroke-width="2" d="M390,-175C410.89,-175 399.91,-145.82 389,-128 371.35,-99.17 339.6,-120.86 322,-92 315.29,-80.99 308.11,-34 321,-34"/>
<path fill="none" stroke="#000000" stroke-width="2" d="M390,-177C412.77,-174.3 401.78,-145.11 390.71,-126.96 370.22,-97.52 338.47,-119.21 323.71,-90.96 317.27,-80.69 310.09,-33.7 321,-36"/>
</g>
<!-- One&#45;&#45;DNS_2 -->
<g id="edge8" class="edge">
<title>One:e&#45;&#45;DNS_2:w</title>
<path fill="none" stroke="#000000" stroke-width="2" d="M390,-148C397.94,-150.75 392.36,-137.04 387.31,-129.07 372.13,-101.04 340.65,-122.56 320.29,-93.04 315.34,-84.45 310,-11.15 321,-9"/>
<path fill="none" stroke="#8000ff" stroke-width="2" d="M390,-150C399.79,-150 394.21,-136.28 389,-128 371,-99.39 339.53,-120.91 322,-92 317.33,-84.3 312,-11 321,-11"/>
<path fill="none" stroke="#000000" stroke-width="2" d="M390,-152C401.64,-149.25 396.07,-135.53 390.69,-126.93 369.87,-97.74 338.4,-119.26 323.71,-90.96 319.33,-84.16 313.99,-10.85 321,-13"/>
</g>
<!-- One&#45;&#45;DNS_3 -->
<g id="edge10" class="edge">
<title>One:e&#45;&#45;DNS_3:w</title>
<path fill="none" stroke="#000000" stroke-width="2" d="M390,-173C433.01,-175.17 429.59,-134.07 446.14,-91.27 450.79,-80.3 441.03,-34.42 456,-32"/>
<path fill="none" stroke="#ff0000" stroke-width="2" d="M390,-175C435,-175 431.58,-133.9 448,-92 452.75,-79.89 442.99,-34 456,-34"/>
<path fill="none" stroke="#000000" stroke-width="2" d="M390,-177C437,-174.83 433.57,-133.73 449.86,-92.73 454.7,-79.47 444.95,-33.58 456,-36"/>
</g>
<!-- One&#45;&#45;DNS_3 -->
<g id="edge12" class="edge">
<title>One:e&#45;&#45;DNS_3:w</title>
<path fill="none" stroke="#000000" stroke-width="2" d="M390,-148C424.51,-149.54 430.46,-124.49 446.19,-91.14 449.87,-83.96 444.96,-11.13 456,-9"/>
<path fill="none" stroke="#8000ff" stroke-width="2" d="M390,-150C426.46,-150 432.41,-124.95 448,-92 451.87,-83.83 446.96,-11 456,-11"/>
<path fill="none" stroke="#000000" stroke-width="2" d="M390,-152C428.4,-150.46 434.35,-125.42 449.81,-92.86 453.86,-83.69 448.95,-10.87 456,-13"/>
</g>
<!-- One&#45;&#45;DNS_4 -->
<g id="edge14" class="edge">
<title>One:e&#45;&#45;DNS_4:w</title>
<path fill="none" stroke="#000000" stroke-width="2" d="M390,-173C482.98,-173.04 526.03,-164.32 581.41,-90.79 588.95,-82.17 576.06,-34.52 591,-32"/>
<path fill="none" stroke="#ff0000" stroke-width="2" d="M390,-175C483.37,-175 526.43,-166.28 583,-92 590.88,-81.65 577.99,-34 591,-34"/>
<path fill="none" stroke="#000000" stroke-width="2" d="M390,-177C483.77,-176.96 526.82,-168.24 584.59,-93.21 592.81,-81.13 579.92,-33.48 591,-36"/>
</g>
<!-- One&#45;&#45;DNS_4 -->
<g id="edge16" class="edge">
<title>One:e&#45;&#45;DNS_4:w</title>
<path fill="none" stroke="#000000" stroke-width="2" d="M390,-148C434.4,-148.04 554.16,-124.61 581.46,-90.73 592.59,-78.65 571.01,-11.61 591,-9"/>
<path fill="none" stroke="#8000ff" stroke-width="2" d="M390,-150C434.78,-150 554.54,-126.58 583,-92 594.49,-78.03 572.91,-11 591,-11"/>
<path fill="none" stroke="#000000" stroke-width="2" d="M390,-152C435.17,-151.96 554.92,-128.54 584.54,-93.27 596.4,-77.42 574.82,-10.39 591,-13"/>
</g>
</g>
</svg>
